/* XPM */
static char *d3eaa50399144644e609f3cc2796a3edNisWys8eCMAuwXpg[] = {
/* columns rows colors chars-per-pixel */
"64 64 21 1 ",
"  c #5B5B5B",
". c gray34",
"X c #4B4B4B",
"o c gray28",
"O c gray31",
"+ c #5B6347",
"@ c #676B4F",
"# c gray39",
"$ c gray23",
"% c #434343",
"& c #373737",
"* c #53573B",
"= c #373F27",
"- c #272727",
"; c #2F2F2F",
": c #232323",
"> c #3F472B",
", c #474F33",
"< c #2F371F",
"1 c #1B1B1B",
"2 c #131313",
/* pixels */
" .XoXOOOXO....O..O.XOXoOOOX+..@#O @..O   OXoOXXOO.O  #.XOXXOOOX$",
"Oo$$$$$$$$$o%o%%oXX%Xo&$o**%o%oo%O*X%oooo$&&$$&$%%ooXO%%%$$$%$=-",
"O%;;;-:-;&=&;=>=$$$&&=====,=&%-;=$&&==$&=;-;;:-;=;;=$&&=&=<===-:",
"X%-;;---;&&=;;$=&&;&==$===&==>$;===$;;;&&;;-;;-;;;;==;=;&$=<<;<1",
"X&---------;;;=;;&&$&$;&&=>>>$%=<;;;;---------;--;;;&$;=&$=&==<1",
"%&-:1----:::-;;=;;;;;=&$&==>==$&--;;:1----::::----;;;;$&$$=&<=<1",
"%&:1:---:1:::--;;;&;$$$;&;=&-==;;:-;-:--:---:-;;-::;;&$$&====;;:",
"%;:1:---::----;;;;;$&&;-;-;=&<-;--:---::1:----;;:1:-;&$&&;$$;&<:",
"%;:1:::-------;;;;-;;;-:----;;;---:----:::-1----::--;&$$$&$$&;<1",
"$&-:--:-------;;;;;;;-::1--:-<;-:--:---:;-:--;;-:::-;&;&&$$$o-<:",
"%&-:-:::--:----;;;;;--::11::-;;-----::--------;;:11:-;;;&&&$%;-:",
"o&--:-----:--::-;;&;-:1:1::-:--:---::-----:----;11::-:;&;$&$%&-1",
"o&-:----:::---:-;;&;-:111:::::-----:::::--::--:--:1:1:;;;&$$$==-",
"o&----;-:-:-:-:------:11:1:::-------1111:------::::--;-;&&$;<&<:",
"o$;;;;;;---------------1-:1:1-------:11:::-:-:::1:::-;-;&&&=;<-:",
"o$;;;;;;--&;;-----;--;;---1:--::-:--1:1:::::------::----&$&=;--1",
"X&;;;;;;-:-;-------:-;-;-:-:---------:11:::---;;---:--<;;&$=<<-1",
"o&;-----;:-;:--------;----;----;;;&;-:11::1-----;:---;<=o$$==$;:",
"%&------;;;-----;;&&;-;;;;-;;;;;;;;--:1:11:::--;;;;;<<=,,,$;-;;:",
"%;;;----;&;-----;;&;;-;;;;-;;-----::::-:-:::11-;;;;====>**%&;&;1",
"o&;----;;&;---;--;;;-;;;;;------:::::--:-::111:--;;;;;$,,,*&&=&1",
"o$;----;;;;;;;;;&&;;-;;&;;-:-::-::--::::111:::-;;;;--;$$&$$&$*=-",
"%$;;---;;-;;;;&&&;;--;-;------1::-----:111::1:-;;-;--;&&&$$,=,,-",
"o$---;------;;;&;;;;;-;;--:---::--::-:--1:::-:-;;;----;;=;=$$,,;",
"X$:--;;;;;;-;&;;;-;---;---;--:::-::1::111-:------;---;;;$&;;$**-",
"O%;;;;-;;-;;;;;;--;------;;---::-::::::11:::::----::-;;;;&&$,>&:",
"oo&;;;--;----;&;;;;;-;-:---;---:---::-::::-::-----::-&&&&$%%%,$1",
"%$<;;;------;;;;--;;:-::--:-;:1::-111:--:-::::-;;---:;;;$%$%$*$-",
"o$=;;;;-;;--;&;;;-;&;;--:----::1::-::1:-:--:::-;-::--;&&$$$$,*::",
"o$;-;;;-;;;;;;;;;;;;&;;---:::::11::111:-:-----;;-:---;&&$$$$$O;1",
"%$;--;;----;&;-----;;--------:-1111:111::----:-;---;;&$;&$$&;=,-",
"X$;;:-;;;---;;--;---;---:------:11::::---:-;-:::--;;;&;;$&&=;==-",
"X$;--:;;;-;-:;---;&;--;-------::----:--------:--:;;-----;;=<=;<:",
"o$=--;;;;;-::---;;;-;----------::--------::::---1:---;;---;;&=<:",
"O$=;;;;;;;------;;;;---:-:::-:-------:----:-------::----:--&;;-:",
"o$=;;;;;;;;;;---;;&;-::::1:1:-------;-------;--;---:--:::-;;&&<1",
"O%==;-;--;;;-;;;;;&;-:1--::----:::----;;;--;=;-----1--:1::-;&<-1",
"o%=$;;;--;;-;;;;;&$;-::::----:11::::-;;=;---;;---;--:----;<<>,=-",
"o$=&;;;;-;--;$;&;&&$;-1::--:--:-:----;;;;--;;----------;-;;>,,=-",
"%%&;;;;&;;-;$&&&&&&$%;-::1:1:-;-:--;-;-;;-:-;;:-----------;&>$;:",
"Xo&&&;;&&;-;&$$$;;&$&&---1:::-:111:--;;;--:----:----:----;;$$$<:",
"O%==;;;;&;-;&&&;;-;&;--:--:-----11:-;;-;----------;----;--=&$&=-",
".%$;&&&&&;--&&&;;---;;----:1-;&-:1--;;--::----------;;---;=$;=;-",
"O$;;;&&&&;;;&;;;-;;;;;;----:-;&;--;;;;;-1:---:-------&;--<=$&=-1",
"X$---;&&;;&&;;;--;$;;---:-;--;;;-;&--;;;-::1:::--;--;&;--;&$$&-1",
"O$;--;&&$&&&&;;--;$;-----;;----;;-;;--;;;--:1-:-----;;----;&<&:1",
"O&;-;;&&&&&&;;;--;;-:--------:----;;---;;;;-------;--;&;;--;<--1",
"O$;-;;;;;&&&;;$;;;;--------------;;;-:-;;--;-;;;;;;---&--;;&==-1",
"O$;-;;&&;&&$&&&;;&$&;;&;;-;---;;;;;;--:-;-----;;;$&;;;$;-;&&;&-:",
"X%;;;;;;;&&&;;&;;;&&&$$$;;;;;;;&&;;;:---;-;;-;;&;;&&&;;;;;&&;,;:",
"o%;;;;--;&;-:--:-;&&$$$%%$&&;&$&$$;;----;;-----;$;;&;;&;&$$&&,<:",
"Xo&--;-;;;;-1:--:::-;$;&$$$$$%%$&$&$&;-----::--;;;;;;&&$$$$&%,<:",
"X$;----;;&;-::;;;-:-;;;;$$$$$%%$&$&&;;;--::----;;;-;;;&$$&&$=,$-",
"o$&--:--;;-::----------;&$&$$%$$$&&&;;;--:--;;&;;&&&;;&$$$$&$*;:",
"X$&;-::---:::--;-;-:--;;&$&&$$$&&;&&;;::::--;;;;-;;&;;;&$&$$&o=:",
"O%;;;-----:-;;;;&;-:1-;;&&;;&$&&&&&&;;;;--;---;;;-;;;-;;&&$%%$=:",
"X$-;;;---:-;&&;;;;::::;&&&;;&$;$$$$$&;;;;&&;;;;&$;-;;;;;$&$$$%&-",
"o&;;;;;;;;-;&;;;;;---:-;&&;$$&&&&$$$&&&&$&&$$$&&$&;$$&$&$$$$&<&:",
"%$;--;&&$;;;;-;&;&&&;---&&&$%$&=;=$;;;$$&&$%$$&=;=&$$$%$$>&&&&;:",
"%$;--;&;;;-;;;-;&$&;;;;;;;;$$$&$$&$;--&$$$$$$$$;;&$$&$%$%,$&$&<:",
"%$---;&;;:1-;;;;&;;;;&&&;;;$$$$$$$&;--;;;&$$$%%$$&$$$&$$X**o,,;:",
"X;-=&;;;;;---;&;&;;;;&&;;;&&$$$$$$$&;;;;;;$&&$$$&$$&&$$$*+X$,,<1",
"%-:-----;--;-----------;--;;-;&;;;;;;-;--;---;;;;;;<-;===$$&>=:1",
"<11112111111111111111111122111111111:11111112111111111:::11:::22"
};
