/* XPM */
static char *c5ccc38465144336c3bc6c0b1bbf1ad3JK7lMZEwUomwKugS[] = {
/* columns rows colors chars-per-pixel */
"64 64 250 2 ",
"   c #040405",
".  c #050509",
"X  c #09060A",
"o  c #09090C",
"O  c #070809",
"+  c #0B0A11",
"@  c #141515",
"#  c #161619",
"$  c #1B1B1C",
"%  c #171818",
"&  c #10150F",
"*  c #201E1B",
"=  c #1B261C",
"-  c #1B321E",
";  c #212C1F",
":  c #1D1E21",
">  c #201E23",
",  c #1B2924",
"<  c #1D3323",
"1  c #1D392A",
"2  c #1E3B31",
"3  c #212123",
"4  c #29292B",
"5  c #243C2C",
"6  c #253928",
"7  c #273C34",
"8  c #313F30",
"9  c #2B422D",
"0  c #28452C",
"q  c #254334",
"w  c #2C4434",
"e  c #2E4A34",
"r  c #2C4539",
"t  c #2D4B3B",
"y  c #264938",
"u  c #324A35",
"i  c #324C3C",
"p  c #364839",
"a  c #2E543C",
"s  c #33523C",
"d  c #3C523D",
"f  c #395637",
"g  c #38502C",
"h  c #35633F",
"j  c #58582B",
"k  c #475939",
"l  c #565935",
"z  c #4B4B2D",
"x  c #625E31",
"c  c #49613E",
"v  c #59643A",
"b  c #5C7837",
"n  c #5A7C2F",
"m  c #676639",
"M  c #617F38",
"N  c #6F7031",
"B  c #515815",
"V  c #2D4743",
"C  c #344D42",
"Z  c #374B43",
"A  c #335343",
"S  c #3B5344",
"D  c #345C4B",
"F  c #3A5C4B",
"G  c #385747",
"H  c #385953",
"J  c #2C5346",
"K  c #3C6149",
"L  c #3C6354",
"P  c #3C645B",
"I  c #3B6958",
"U  c #3D6661",
"Y  c #465A47",
"T  c #4B5A4A",
"R  c #48644A",
"E  c #586749",
"W  c #587447",
"Q  c #42645C",
"!  c #446C5D",
"~  c #476755",
"^  c #566A59",
"/  c #597459",
"(  c #49745A",
")  c #666A49",
"_  c #667B47",
"`  c #787746",
"'  c #667A57",
"]  c #777B58",
"[  c #706F4D",
"{  c #436B62",
"}  c #476A68",
"|  c #5B6D65",
" . c #467264",
".. c #5C7565",
"X. c #597A79",
"o. c #4D7575",
"O. c #687A67",
"+. c #797B62",
"@. c #697973",
"#. c #645D40",
"$. c #837E3A",
"%. c #867C46",
"&. c #5F8134",
"*. c #63833C",
"=. c #7D823F",
"-. c #688548",
";. c #738A4B",
":. c #6C8557",
">. c #768A59",
",. c #779458",
"<. c #74984E",
"1. c #588478",
"2. c #54826D",
"3. c #6C8767",
"4. c #788968",
"5. c #7B9364",
"6. c #7B9668",
"7. c #6C8577",
"8. c #768876",
"9. c #789478",
"0. c #6E997C",
"q. c #6E9356",
"w. c #88833D",
"e. c #868548",
"r. c #858758",
"t. c #869459",
"y. c #999153",
"u. c #84886A",
"i. c #869767",
"p. c #859778",
"a. c #939C78",
"s. c #899071",
"d. c #86A367",
"f. c #8BA578",
"g. c #94A878",
"h. c #99AB6D",
"j. c #95AE69",
"k. c #557B87",
"l. c #4D7A82",
"z. c #6A7883",
"x. c #5B8685",
"c. c #678986",
"v. c #6C9787",
"b. c #799688",
"n. c #699B97",
"m. c #789B98",
"M. c #738A85",
"N. c #6EA09C",
"B. c #7AA79A",
"V. c #7CAE96",
"C. c #7AA8A4",
"Z. c #6BA4A3",
"A. c #879887",
"S. c #959C86",
"D. c #8C9D94",
"F. c #89A38A",
"G. c #96A988",
"H. c #9AB486",
"J. c #87A899",
"K. c #97A997",
"L. c #86B39D",
"P. c #9CB498",
"I. c #A7B989",
"U. c #A4AB97",
"Y. c #A7B898",
"T. c #ADB491",
"R. c #87ACA6",
"E. c #88B3A5",
"W. c #9BB5A8",
"Q. c #8CB4B2",
"!. c #97AFAB",
"~. c #A7ACA7",
"^. c #A3B5A4",
"/. c #ACBDAB",
"(. c #A7BAA6",
"). c #B2BCA9",
"_. c #A6B9B3",
"`. c #B3B9B3",
"'. c #A8C197",
"]. c #B4C992",
"[. c #AAC3A8",
"{. c #B8C6AA",
"}. c #BAC5B4",
"|. c #BDCCBA",
" X c #B7C8B4",
".X c #BBD2BB",
"XX c #B1CAAE",
"oX c #C6D8AB",
"OX c #C3CEBA",
"+X c #C5CDB8",
"@X c #C4D3BC",
"#X c #CBD5BD",
"$X c #C6D7B7",
"%X c #D1D9BD",
"&X c #C5CCA9",
"*X c #D2E2B9",
"=X c #E1D5BF",
"-X c #B8CFC6",
";X c #CBCBCC",
":X c #C6C7C7",
">X c #C4D3C2",
",X c #CBD5C3",
"<X c #CDDBC4",
"1X c #CCD4CC",
"2X c #CDDAC9",
"3X c #C4D9C5",
"4X c #D2DBC5",
"5X c #D3DDCB",
"6X c #D5D8C7",
"7X c #CDCDD1",
"8X c #D0CED3",
"9X c #CDD5D2",
"0X c #D3D4D5",
"qX c #D5DDD3",
"wX c #D6D5D9",
"eX c #D9D9DB",
"rX c #D9DAD7",
"tX c #D1CDCC",
"yX c #CEE2CA",
"uX c #D4E2CC",
"iX c #D9E3CC",
"pX c #D6E8C9",
"aX c #D6E3D2",
"sX c #DAE4D3",
"dX c #DDEAD4",
"fX c #DAE7DA",
"gX c #DFF0D0",
"hX c #E3ECDC",
"jX c #E3E9D6",
"kX c #E4EBCE",
"lX c #DDDDE0",
"zX c #DDE9E2",
"xX c #E4EDE2",
"cX c #E7EAE8",
"vX c #EBF5E8",
"bX c #F2F6EC",
"nX c #F4FAE9",
"mX c #E9EEF1",
"MX c #EBF3F3",
"NX c #EFF6F8",
"BX c #F4F6F4",
"VX c #F5FBF4",
"CX c #F9FCF5",
"ZX c #F6FAFA",
"AX c #FEFFFB",
"SX c #FBFEFC",
"DX c #FFFFFF",
"FX c #FEFEFD",
"GX c #FDFDFD",
"HX c #F6F6F9",
/* pixels */
": $ @ @ $ # # @ @ @ @ % @ @ # # # # # @ @ # # # $ @ @ @ @ @ @ # % @ @ # # % @ @ @ @ @ # # # # # @ % % @ $ # @ @ $ @ $ @ $ @ # 3 ",
"$   O   O   O o   o O O o + o . O O O O   O     O + O O O O o O     + + . X o . O O O O         o O o o O O o O O O O O   o   3 ",
"@ O ~.0X;X0X0X7X7X9X;X;X;X1X;X7X7X;X1X7X1X1X1X1X1X;X;X7X0X0X0X7XtX8X8X0X;X;X8X7X;X;X;X;X;X;X0X0X7X8X7X;X;X0XtX;X;X0X0X;XwX`.O $ ",
"$ O 0XDXDXDXHXDXDXAXAXAXAXAXAXAXDXDXDXDXDXDXDXDXAXCXAXAXCXDXDXAXDXAXCXCXAXSXSXSXDXDXDXDXDXDXDXDXAXDXAXDXAXAXCXDXDXZXDXDXDXcXO : ",
"@   :XZXDXZXDXSXDXBXZXDXAXZXZXZXDXDXZXZXZXZXGXFXHXBXAXDXGXDXZXCXZXSXCXCXSXSXZXVXSXSXSXZXSXDXDXSXCXCXGXGXCXAXDXGXSXDXSXDXDX;X  $ ",
"$   0XDXSXZXDXSXDXFXDXFXGXDXDXDXDXDXDXDXDXDXDXDXDXDXDXGXDXDXDXAXDXDXDXDXGXDXDXDXDXDXDXDXDXDXDXAXSXDXDXGXDXSXGXDXSXDXSXZXDXwX  3 ",
"# O :XHXSXDXZXZXnXvXxXbXSXZXzXSXbXVXVXVXVXCXVXVXNXcXCXSXVXmXxXnXvXxXmXNXAXCXxXBXVXCXCXVXVXVXVXbXSXMXZXZXnXjXvXBXZXZXDXZXZX0XO $ ",
"@ O :XDXZXSXSXfX%X4.) +XyXp.Y ^.5XaXaX5X5X5X5X2XT k [.pX(.G.6.H.6.9.J. XpXH.c ^ ,X5XsXdXdXjXhXxX,XY @.5XT.v a.oXrXSXSXDXDX0XO $ ",
"@ O :XDXGXDXBXkXtXe.l ~.@X-.A R 7.7./.hX5X5X|.Y 6 w d I._.J.J.3.0.E.J.W.H.c H J ~ |.sXsXaX XK.A.~ 7 k oXU.j j.<XiXCXDXHXDXwX  * ",
"@ O ;XDXZXDXbXG.y.e.x ) Y.{.,.Q ! ~ Y F.uX Xp 6 w Z w k ^.W.E.J.E.L.E.P.k A A  .A ~ OX5X8.u 7 5 7 W ].&X) ` e.j.g.bXDXDXSX0Xo $ ",
"$   ;XAXBXDXhXE x m e.j u.dXg.Q I ! R p  X9.< S u r r 6 :..XJ.n.B.R.[.6.0 F Q F { t A.K.< i i t p h.#Xu.x w.m j v hXAXAXAX9X. $ ",
"# O ;XAXHXDXxXa.8.l N ` ] {.W H D D i A.>X^ 6 A t Z i q b ).!.n.n.!. X:.t h U P  .D 7. XO.u i w 9 E T.] e.m l s.G.bXDXCXAX0X  : ",
"@ + :XAXDXDXZX>X+XS.) ` g.' Z R b.A.K.,XOXd w A A t e q v |.!.n.m.W.|.-.t ! L }  .F 7.4XqX X/.K.Y 6 T r.[ m S.#XhXDXDXAXCX0Xo $ ",
"@ X :XAXDXGXNX| _ oX,Xh.k | | Y.5XsXsX5X2XT 5 A A w e 5 E |.3Xb.m.3XoXW J P I ! { A O.iX5XhXdXuX_.~ ' ^ Y.oXoX6.A.ZXDXDXCXrXO $ ",
"# . :XAXZXDXmX6 = -.].T , | {.2X5XjX,X2XXXd i A t t t 5 S Y.$X|.1X#Xd.R L P { ~ Q D ~  XuX5XjX5X4X X| V R ].5.i d mXDXCXAXeX  > ",
"@ + :XAXCXDXVXA.C u k 7 Y (.1X6XdXuXuX XY e i r 9 0 r u 7 f I.hXuX6.R P ~ { ~ P  .L G ~ XXhXsXfXsX5X[.^ C S R V A.ZXDXCXAX0XO > ",
"#   :XDXSXSXVX5XO.u i w A.2X5XsX<X5XXXR y S p 8 U.8.- s y t R g.i.f U P { H F.p.a L } P ~ [.hX5XsXsXjXK.D L A ^ ,XVXDXAXAXwX  $ ",
"#   :XDXGXSXVXqX^ w t w ^.2XsXiXaX{.k < A A 7 G.dX1X8.- e A 6 W k e { ! K J.fXuXA.H P ! G ' *XaX2XfXsX^.F L s O.5XSXDXSXAXwXO $ ",
"#   :XDXGXSXVXsX^.w w Y /.aXuXsX[.3.4.6 V 5 A.<X1XfXsX4.w w Z |.(.Y F G W.aXhX,X2XJ.D t R G.E [.iXjXjX X~ t 5 p.iXSXDXCXAXwXO $ ",
"@   ;XDXGXSXVXqXdX9.p ).5X@XiX X~ y ..9.p A.$X<XuX2XsXaXO.d |.hXaX[.Y A.sXuXsXiXjXjXF.T F.d 5 Y @XiXsXaXXXd 7.4X5XVXDXCXAXwXO $ ",
"@   ;XDXGXSXZXqX5X5XOX@X,X<X.X/ L  .H ^ r.r.+.U.5XfXfXfXG.5.g.p.f.g.>.G.sXaXuXhXG.u.i.4.p 7 p 9 R ,X5XsXaX/.@X4X5XZXDXSXAXwXO $ ",
"#   :XDXGXDXVXqXjX,XK.8.A.F./ R  .P H F.r.m x l S.).).@X5.M b ;.*.M M 5.).`.}.A.l m m 4.O.7 S u w d / O.7.D.,X5X5XCXDXSXAXwXO $ ",
"#   :XDXGXDXVX5X3X~ A F F F F ( ( H b.sXs.l ` m j l l ' :.*.d.H.H.,.&.:.4.z E l m ` l u.4X8.7 p r u 5 5 < = / 2X5XCXDXSXAXwXO $ ",
"@   :XDXSXDXVX1X..G ! I { P P } D 9.5XrXXXE m w.e.e.r.>.-.d.G.@.M.P.d.-.>.r.e.e.e.v E {.5X5X4.5 C w i i w 5 - ^ 4XZXDXSXAXwXO $ ",
"# o ;XSXCXDXBX| F ! L L P Q P H p.<X+X4XiX(.k e.{.#XOXt.h.m.x.R.B.c.J.h.t.@X>XI.e.l (.dXiX2X<X4.w w t V q 6 0 < T ZXFXZXAXrX  $ ",
"$ X :XSXZXDXhXd P U L ! D P P D ^.rX5X<XfX>XE %.|.rX&Xp.b.c.R.L.E.B.c.b.P.,X4X Xe.v OXsX5XsXqX9.q G w u u w V 7 k cXDXGXAXrXO > ",
"@ o ;XDXGXDXCXP.R F P L P U P K T }.sXyXaXfX) ` {.,X@X0.o.Q.Q.J.R.R.Q.x.M.2X#X X;.l }.qXsXsXA.6 e C t e t V 5 g Y.VXDXCXAX0X  $ ",
"% X :XDXSXFXCX3XG.c u F J y ~ ! L G /.fXjX5XY.g.h.G.X.W.b.c.R.E.J.R.x.v.W.b.G.,.t.s.OXjXiX8.9 s d w i 0 w < k ].dXVXGXDXAX0X  = ",
"$   :XSXZXDXBXW.W.'.:./ / W f H I L Y Y.Y.5.>.-.g.2.o.v..Xb.1.N.B.c.J..Xb.x.9.d._ :.6.P.O.u s a u d R k k _ K.W.|.BXDXFXZXwXO $ ",
"@ X ;XSXZXDXMXJ.R.W.yX,X#X*X:.f H Q C d -.*.b f.M.c.Q.x.R.aXW.2.1._.1XF.c.Q.c.F.5.b *.W 9 p i A f H.$XOX{.[.L.C.K.NXDXHXDXeX  $ ",
"@ O :XSXDXZXfX9.E.E.!._.(.>X$X6.Z y ~ P.-.&.d.9.k.Q.E.C.}  XaX.X.XsX}.c.C.C.R.c.P.;.*.5.D.r w G H.pXyX_.R.E.L.V.6.vXDXFXAX0X  3 ",
"$   7XDXGXAXnX6.9.R.n.v.v.m._.4X6.R  XOX_ ;.6.o.E.L.R.E.v.X.>X6X6X|.X.C.V.V.V.m.7.H.-.:.3X^.k H.rX9XJ.n.N.n.J.3.g.nXSXAXCX0X+ $ ",
"@ o ;XDXZXDXnX6.9.J.N.n.n.c.W.sXY.E >X{.-.;.F.z.B.V.E.Q.b...-X6X=X-X1.m.R.L.B.m.c.G.-.;..X^.E H.sX(.v.Z.Z.N.J.:.g.vXSXGXDXlX  = ",
"@ o :XAXDXDXfX4.E.L.E.R.W.-XpXY.f 9 ~ P.-.&.,.f.k.E.E.C.X.`.pX-X[.gX!.o.B.J.J.l.f.,.b 5.K.S i E Y.<XXXK.J.B.B.N.4.vXDXDXCX0Xo $ ",
"# O ;XAXBXDXmXD.E.XX3X5X5XkXH.g 0 G 7 p W b n t.A.X.L.o.!.dXK.X.2.J.uXm.1.E.1.b.5.-.-.W d H L A v {.5X5X<X(.E.C.A.MXDXGXAX0X  : ",
"$   :XAXZXFXBX/.>X{.i.:.:.' u V A y 8 M.^.p.5.-.i.9.U J.yXm.o.B.R.l.M.{.7.k.0.j.W -.4.F.7.S L L i / 9.p.i.f.P.K.XXNXDXZXAXeX  $ ",
"@ O :XDXDXFXVXpXI.k 6 5 q 2 e 0 r 6 S.sXfX>Xp.4.6.p.K.-Xv.7.Q.E.R.Q.c.7.R.b.f.i.f.G.@X@X#XG.R P L D A s s u v I.gXVXDXFXDXwXO $ ",
"& o 7XSXGXFXCXY.f 5 t e s t t e , p.dXiXiX5X) [ >X|.&Xb.l.E.B.V.J.J.L.l.M.T.{.(.r.[ {.,X@X,XD.H { L ~ K F F s K I.CXGXGXDX0XO $ ",
"% X ;XAXZXDXvXf 2 A t w w S w 5 8.<XuXdXfX%Xm e.#XzX>Xg.p.c.E.E.J.E.x.9.i.`.qX/.e.) {.>XsX5X,Xb.A L ! P P Q D y Y VXDXHXAXwXO $ ",
"# X ;XAXCXFXmXw 7 u p i t e e y {.jX5XqXfXS.j %.&X#X$X5.t.H.X.Z.Q.k.b.i.>.OX1X[.y.j P.aX,X4X4X8.D Q P P L ~ Q V M.NXSXAXAX0X. > ",
"@ O :XDXGXDXVX~.6 5 w i i i t w k /.aXuXG.j x %.$.%.>.s._ <.H.7.8.H.d.M t.r.r.r.%.m k Y.4X4X8.D U { L F L ~ t D.sXVXDXDXDX0X  : ",
"#   :XDXHXZXSX2X^.6 6 6 < 1 e i 9 u ^.5X+.j ` x l l E G.>.&.;.G.P.d.-.:.G.v v j m ` l ] aXb.G Q L ~ ^ ..^ G D.xXsXZXDXDXDX0X  : ",
"$   :XDXGXDXCXaXiX|.K.A.A.O.u u s e p K.+.v l l K.OX+X@X5.M *.;.,.-._ 6.}.).{.G.l j m ) 7.H P ~ s 3.{.#X>X.XuXiXsXVXDXDXDX0X  : ",
"#   ;XDXDXDXbX2X5XdXhXaXaXsXY.p q s 6 T s.S.S.).9XaX2X<XG.:.>.,.,.5.:.Y.aX1X5X#XY.] ] E A P P G 8.#X%X%XuX>XuX5XsXVXDXDXDX0X  : ",
"@   1XSXZXDXbXqXsXA.W.yX<X4X<XP.w < ^ F.S /.hX@X,X,XuX2X7.^ ^.$XyX/.k A.fXsX5X<X>XOXO.T 9.Y s 9.#X@X4XiXU.Y A.uXsXZXDXDXDX0X  : ",
"#   ;XDXZXDXbXaXK.S Y /.2X4XuXuX~.^ 9.A F i K.5X#X4XOX8.G H ~ |./.Y i p Y.sX2X5XaXb.2 i R 4.3..X#X4X4X/.w r 7 ^.sXVXDXDXDX0X  : ",
"#   :XDXDXDXbX2X^ ~ F ~ |.5XdXuXiX XY F ! Q G K.uX3X..F L P i ' E w G e u K.xXsX9.5 V C 6 O.+X2X,X,X5XK.w C < O.sXZXDXDXDX0X  : ",
"@   ;XDXGXDXZX2X~ L  .A  XjX<XaXiXpX(.K H P ! s K.M.D I I A R '.g.d A a i r K.p.6 w w 5 / XX,X,X>X,X5XF.t V 5 O.qXVXDXGXDX0X  : ",
"# o :XAXCXDXZXY.A F Q L F.fX1XiXaXsXuX/.Y t ! D D Q Q I H k T.xXkXG.S u d y w 7 y 9 6 A.2X2X>X>X2X*X|.Y 7 u r i /.SXSXAXAX0XO $ ",
"$ O :XAXAXDXMXY e d.:.C S p.iXsXsXiXiX<XP.F L L L ! P I ~ H.dX-X,XyXG.f q t t 9 y < O.5X,X,X5X#XrX@XY , k I.b , d mXSXCXAXeXO $ ",
"@ O ;XAXZXDXcXT d.pXoX5.Z | p.qXsXfXhXuXOX..L L P L ( J / gX.Xv.J.pXoXk A t e e t 6 p.5X,X4X#XiX/.| / E {.<X].v O.SXDXAXAXwX. $ ",
"@ X ;XAXZXDXZX#XiX~.+.t.>.Z 5 b./. X@XuX5X..F  .U I ( A :.|.R.n.n.[.&XE y e u w t < 8.<X@XXX/.P.( H / g.a.S.{.&XiXSXDXAXAX0X. > ",
"% O :XAXFXDXBX+XS.l m [ u.s.5 p i w T  XaX^ D  .} P ~ i 5.XXR.n.N.^.%XE 0 a t q w - A.uXF.F Q F L R G.[ m B +.).{.vXDXZXAX0XO $ ",
"@   7XDXGXDXjXE j N %.l s.*X5.w S Z 5 Y >X8.A P I { { i p.[.R.n.m.W.<X:.9 i w e 5 6  X(.G L  .{ R H.{.m ` N j j [ vXDXDXAX0X  $ ",
"% O 7XDXHXFXnX] =.` x ) OXoX>.r w 5 9 A.,X XT L ! L i ' P.L.J.b.J.J.(.I.g t t 9 - 4.@X X7.A D F G f.#Xu.z [ e.N ] bXDXHXAX0X  3 ",
"@ O :XDXGXDXnX&XT.N j U.*X,.6 V ..O.K.uX,X5XXX~ P A W I.!.C.v.5.9.J.m.Y.f.0 y < 7.2X#X#X>XK.b.7.L A 5.).) j t.`.T.bXDXGXAX0XO $ ",
"$ O :XDXZXSXSXrX].[ ) {.{.k 9 K.hXxXhXqX5XqX1X}.R ' Y.$X[.A.9.'.H.9.F.@X$Xp.g 8.qX5X5X5XsXsX5X5XG.p 8.<Xs.l a.#X0XSXSXDXDX0XO : ",
"@ O ;XZXZXDXSXSXCXbXcXZXZXcXmXSXVXVXVXVXVXSXCXVXMXvXAXCXHXZXvXnXvXvXMXZXVXCXxXZXVXZXVXZXCXCXZXVXVXMXZXSXxXhXbXCXSXZXDXSXZX0XO $ ",
"$   7XDXHXZXDXSXGXDXDXDXSXDXDXZXDXDXDXDXDXSXDXDXDXDXDXDXFXDXDXAXSXDXSXDXDXDXDXDXDXDXDXDXDXDXDXDXDXDXDXFXDXDXDXFXSXDXZXZXDXeX  : ",
"$ O :XDXDXSXDXZXDXCXCXAXCXCXAXCXSXDXDXSXZXGXSXGXZXZXCXDXDXGXZXCXCXDXDXDXGXCXDXHXGXSXDXDXSXGXSXSXCXHXGXDXCXVXZXFXSXDXSXDXDX7XO : ",
"#   wXDXDXDXZXDXDXDXDXZXGXDXDXDXDXDXDXDXDXDXDXDXSXSXSXSXDXSXAXSXAXDXDXAXAXAXAXAXDXDXDXDXDXDXDXDXAXAXAXAXAXAXDXSXDXZXDXDXDXlX  $ ",
"# O ~.eX0XwXeX0X0X0XeXwXeXwX8XwX0X0X0X0X0X0X0X0X0X0X0XeX0X0XwXeXwX0X0X0XeX0X;X0X0X0X0X0X0X0X0X0X0X0X0X0X0X0X0X0X0XwX0X0XeX`.O $ ",
"$   O   O   O       O     O                     o .   . X O   . . o O     o O O O       O O O   X O O O   O o         O   O   3 ",
"3 3 $ > $ $ $ : > $ 3 : $ 3 $ $ $ : : : $ $ : $ $ $ 3 $ $ = $ , $ $ $ 3 $ $ $ * : : : : : : : : : 3 $ $ > : $ = : $ 3 $ 3 $ : 4 "
};
