/* XPM */
static char *b2c16d70ce96490f9077ae12fc7d6cf8isK3apHdJNpaeXuN[] = {
/* columns rows colors chars-per-pixel */
"64 64 187 2 ",
"   c #BB3E1D",
".  c #B53F21",
"X  c #BD3E22",
"o  c #C03F17",
"O  c #C23E1B",
"+  c #C23F26",
"@  c #B64317",
"#  c #BC4316",
"$  c #B6441B",
"%  c #BB441C",
"&  c #B6491C",
"*  c #BA491E",
"=  c #B54524",
"-  c #BC4523",
";  c #B54B25",
":  c #BB4925",
">  c #B7452A",
",  c #BC462A",
"<  c #B54C2A",
"1  c #BD4B2A",
"2  c #AF512F",
"3  c #B5542A",
"4  c #B9502C",
"5  c #BB4B31",
"6  c #B75333",
"7  c #BF5130",
"8  c #C1431C",
"9  c #C3491F",
"0  c #D74E1F",
"q  c #D84F1B",
"w  c #DC521E",
"e  c #C24523",
"r  c #C14A24",
"t  c #CD4F26",
"y  c #C3452A",
"u  c #C14B2B",
"i  c #D64E24",
"p  c #DA4F24",
"a  c #D64E29",
"s  c #DB4E2A",
"d  c #CE5225",
"f  c #C2502C",
"g  c #CE552A",
"h  c #CD592A",
"j  c #D65324",
"k  c #DB5325",
"l  c #D65A26",
"z  c #DB5925",
"x  c #D5542A",
"c  c #DB542B",
"v  c #D5592C",
"b  c #DC5A2C",
"n  c #C44630",
"m  c #C54E30",
"M  c #C35235",
"N  c #D75731",
"B  c #DC5630",
"V  c #D45A32",
"C  c #DC5B32",
"Z  c #E14F28",
"A  c #E15425",
"S  c #E05A27",
"D  c #E1542A",
"F  c #E15A2C",
"G  c #E25631",
"H  c #E25B32",
"J  c #DD622D",
"K  c #DF6131",
"L  c #DB703A",
"P  c #E3612D",
"I  c #E46335",
"U  c #E96137",
"Y  c #E86837",
"T  c #E4643A",
"R  c #EA643A",
"E  c #E6693D",
"W  c #EB683C",
"Q  c #DE6D46",
"!  c #DF6D4C",
"~  c #DD7146",
"^  c #DD724D",
"/  c #DB784F",
"(  c #DD7554",
")  c #DE7955",
"_  c #DF7759",
"`  c #D7785C",
"'  c #DC7959",
"]  c #E46640",
"[  c #EA6741",
"{  c #E56B44",
"}  c #E96A43",
"|  c #E46E4C",
" . c #E57245",
".. c #E97247",
"X. c #E3734D",
"o. c #E9724B",
"O. c #E4794E",
"+. c #E66F51",
"@. c #EA6F50",
"#. c #E37553",
"$. c #E97455",
"%. c #E47956",
"&. c #E97954",
"*. c #E47659",
"=. c #EA7559",
"-. c #E47A5A",
";. c #E87B5E",
":. c #DE7861",
">. c #EA7B61",
",. c #DD835E",
"<. c #DC8461",
"1. c #DE8B64",
"2. c #DE8C6D",
"3. c #DF956C",
"4. c #DF8E70",
"5. c #DF9071",
"6. c #E38665",
"7. c #E28564",
"8. c #E38363",
"9. c #E28A66",
"0. c #E68967",
"q. c #E38A65",
"w. c #E2866D",
"e. c #E28768",
"r. c #E78A68",
"t. c #E38B6D",
"y. c #E08B6E",
"u. c #E58A6D",
"i. c #E18C6F",
"p. c #E38C6E",
"a. c #E48C6D",
"s. c #E98E6F",
"d. c #EA8C6C",
"f. c #E2926F",
"g. c #E4946F",
"h. c #E4916E",
"j. c #EB916F",
"k. c #EA916D",
"l. c #E78970",
"z. c #E68B70",
"x. c #E58A72",
"c. c #E28D70",
"v. c #E38E71",
"b. c #E38D72",
"n. c #E68C71",
"m. c #E78C71",
"M. c #E58E70",
"N. c #E78D72",
"B. c #E48F72",
"V. c #E48E73",
"C. c #E58D71",
"Z. c #E88A71",
"A. c #E88D72",
"S. c #E98E72",
"D. c #E98E72",
"F. c #E58D79",
"G. c #EC8D79",
"H. c #E98E79",
"J. c #E19271",
"K. c #E29271",
"L. c #E29372",
"P. c #E39372",
"I. c #E59071",
"U. c #E79371",
"Y. c #E69172",
"T. c #E79273",
"R. c #E69373",
"E. c #E39571",
"W. c #E39473",
"Q. c #E49473",
"!. c #E79772",
"~. c #E49471",
"^. c #E69375",
"/. c #E49574",
"(. c #E59574",
"). c #E49576",
"_. c #E49372",
"`. c #EA9171",
"'. c #E89374",
"]. c #E89176",
"[. c #EA9373",
"{. c #E49875",
"}. c #E4927A",
"|. c #EA967A",
" X c #E69B7C",
".X c #E6997B",
"XX c #E9997A",
/* pixels */
"u : : u 1 1 u 1 u 5 1 % % 5 5 u 1 u u 1 u u 1 1 1 1 u u , u u 1 1 1 1 1 u 1 1 1 : 1 u , 1 : 1 u 1 5 u % % y n 1 1 1 1 1 1 1 1 1 ",
"c.i.c.c.c.c.V.c.0.i.7.; : 6.V.r.c.V.c.y.c.c.c.V.V.c.c.c.y.c.V.c.S.S.m.u.m.m.m.S.y.m.m.w.V.y.m.Z.9.f.,.: 3 6.s.1.m.m.m.m.m.m.m.m.",
"U.U.U.U.U.U.U.U.3./.j.< ; j.E.3.U.U.U.U.'.U.U.U.U.U.U.'.U.U.U.U.P.~.P.~./.E.P.P.E././.P.~.g.~.P.`. XS.- ; u.U.3.P.P.P.P.P.~.~.~.",
"%.-.%.%.%.%.%.%.-.*.=.X X $.%.-.%.%.%.%.-.%.%.%.%.%.%.-.%.%.%.%.%.%.%.%.-.%.%.%.%.*.*.%.&.#.#.%.;.2.S.y y %._ %.%.%.%.%.%.%.%.%.",
"^ #.^ ^ #.#.#.#.^ X.^ : : X.X.X.#.#.^ ^ ^ ^ #.#.#.#.^ ^ ^ ^ #.#.#.#.^ ^ ^ X.#.#.X.#.( #.X.X.O.-.%./.T.1 - Q | { #.#.#.#.#.#.X.^ ",
"c H c c c c c c C C x - - x c c c c c c H D c c c c D H c c c c c v v v C b c c c b x b c c C { #./.2.; & V H c v v v v b C b c ",
"z J b j l l j j T F x : : j k c j j l b P z j j j j z J b l j j k j l b P z j k w j j b k k z  .#.S.m.1 9 a s x j j j j z S b z ",
"c C c a c c c c N k j - e c k j c c c v b c c c c c c b v c c c c c x v b v c c c v N T H c V #.) '.G.; & j H L c c c c c C v a ",
"c c c x v x c c k A c - - c A k b j k A A k c b j k k k k k k b k k k k c j j b k k k z k A v o.-.S.y., & c k b k k b j k k k k ",
"k k j z I F k k c k x - - x k c T b c c k c C T v B B B B c C T c c k c c c F R b c k k j k N X.' ~./.u % k k k v C T C v v c B ",
"k k p k D k 0 c c k x - - x k c H c c c c k c H k p k k p p c D c k c c c k c b j c c z k c N ^ ' h.P., % k k c p c D c p c p c ",
"j C c c c c c } c k c - - c k c c k b H b c k c k k k S k k k j x j b I b j j j c k k c k c N X.;.a.y., * j z v k k k k k F k k ",
"v T b c c x d v k k k % % k k k k k z b l j k k x x C H b x v v k k k S k k k k k k k b k p c  .-.`.h.1 : b Y b v x x v b I b x ",
"j S k k k S k k c k k % % k k c A k c c k k A A c c c D c c c k A k k k k c A A j c H I b k v o.) g.f., $ k H c c c c c c D c c ",
"c c c p k p k c x j x : : x j x c c c c s c c c c c k k k k k p c c v v v c c c j v x v x c N | %.0.<.m % i v x k k c k k k k k ",
"- % - - : - - - % 8 e = = e 8 % & $ % % % % * $ - : : = - % % - % - % % % % % 9 # 8 % % % e   ; e ; < X $ # & * : % : $ - - - - ",
"- 1 u 1 1 : 1 1 : 1 : : 1 1 1 : u - : 1 1 - 1 : 1 +   7 > 1 1 r : 1 1 : : 1 1 1 1 1 1 - 1 1 : 1 , , : - 1 < u 8 % u < < > : 1 1 ",
"S.V.u.m.S.S.m.u.m.V.S.V.V.V.V.V.i.U.c.c.m.m.V.c.1.< ; q.j.t.1.j.V.V.V.V.S.S.m.m.S.S.m.u.m.m.m.S.h.f.h.a.h.E.<.; < 8.S.h.j.k.a.u.",
"~.~.~.~.P.P.P.P.U.U.~.~.P.P.U.~.f.~.f.h.S.`.T.XXa.; ; q.a.|.XXU.~.P.P.~./.~.P.P.P./.P.P./.E.P.P.|.2.f.`.a.'.r.1 2 s.|.4.P.U.i.L.",
"#.%.%.%.%.%.%.-.%.%.%.%.%.%.%.%.-.-.#.%.-.%.' s.s.1 1 %.%.*.-._ %.%.%.%.%.%.%.%.%.%.%.%.-.%.%.%.*.( -.>.#.=.$., > =.*.*.;.*.*.>.",
"X.X.^ ^ #.#.#.^ #.#.X.#.#.#.#.#.+.| | o.| %.' |.y.> - ~ o.X.X.o.#.#.#.#.#.#.#.#.#.#.^ ^ X.X.#.#.O.%.O./ ~ O.^ ; : Q X.%.O.^ O.O.",
"v C C b v v v c c v v v v c c c B C b b N X.) `.c.M % h b b v b c c c c c v v c c v v b C b c c c D s b k c v % 8 x c c x C C j ",
"j S P S j k k k k k S k j k k j k k w w k ..%.j.V., O j k k b R j k j j l b z j k j l S P z j k j k c E J k j * 8 j k k b T b k ",
"x v b c c c c c x H H C c v c v { N x c B $.:.F.i., 8 l k c v b c c c c C T H x c c x c b v c c k k s C j D c % e x D k x C a A ",
"c k k k k k c D k k c k c i c c b c p k c X.*.a.D.y % v D T v j c z j k k D k c j b j k c c j c { b j N x k c - 8 a c j D c j k ",
"j j x z x b b T b c j c c b c j c c k z x ^ -.|.2.1 % x s C c k a c F c p c c c F U c k c c c c N k k c p A c % - c b c k k j D ",
"c c c c k k x C c c k c c U c c c c b T C / *.U.W.1 & j D c k c c F H F c c c k j b c k c c c p j k A F k A c - % v b I D c x c ",
"c k k k k c k c j j b k j F j c b j j v v ^ *.S.V.> % k A j b x c j z j j v b j j j x b Y c c c v k c I C c x , % a j b k c b p ",
"j k b k j b k k z z Y z j z j z I b k k D X.-.~.V., r k p z E b k k k k k F I b b k k k F k k k c k k C b k j - 9 c k j k c Y D ",
"k F I b x c k k k k H k k k k k F A A D G ~ %.3.U., @ x c x H c k s D A k c D k A A k s k k D k k A k k k A k % % p c j k j C c ",
"a c C v x x s c s s c s c c c c c a x x v ~ %.a.<.u $ x B x x c c c v v x x x c a c c v x v B x x k k x j k j % : x v x v x g x ",
"r % % % - % % 8 * : $ : $ $ $ % - % * & % : + , < e % 8 O : & 8 % % $ % % % % : % % % r % & % % - % - , - % % = = e % % 8 e   8 ",
"u 1 > 1 : - 1 1 1 y X 1 , 1 , y : : = : 1 : : = : : 1 1 1 : : 1 1 - r 1 1 ; u # O f ; : u : < - : 1 : - : 1 1 : : : : : : : : : ",
"a.U.c.V.V.S.V.2.,.4 < 1.j.a.i.`.m.V.V.V.m.u.V.V.V.V.V.V.Z.V.V.S.c.V.a.2.V.T.8.< 5 <.2.V.y.c.U.S.m.S.S.m.m.m.V.V.u.V.V.V.V.V.V.a.",
"h.'.T.i.U.h.P..Xk.; ; q.U.U.5.P.P.P.E.E.f.f.E.E.P.P.P.P.P.U.~.P.T.|.h.U.|.[.r.< < r.U.[.u.|.U.V.P.U.~.~.P.P.P.E.P.T.P.P.T.T.P.P.",
"%.%.-.%.%.( ' `.d.- - %.-.;.-.-.%.%.%.%.%.-.%.%.%.%.%.%.%.%.%.%.%.%.%.%.) %.#.- : #.#.%.%.-._ %.%.%.%.%.%.%.%.%.*.*.%.#.%.%.%.-.",
"| | +.#.$.#.' [.V.1 - Q X.o.X.X.#.X.#.#.#.%.X.#.#.#.#.#.#.#.#.#.@.#.&.X.X.#.| 1 1 | #.#.#.X.#.&.#.#.#.#.#.#.#.#.O.O.O.X.X.X.X.#.",
"b b v v C X.) s.c.5 % v b b v c v c G c x b x c c v v v v c v c b x N v b v g $ % x N x v x b v c v v v v v v c x x c b c c c x ",
"k k k k j ..%.`.c.u e j p k k k b j A k j b j A k j k z z j j k k k k k A q j 9 8 k k k j w A k k z S z j j k j b j j k k l b j ",
"c v H [ C #.` }.~.= % v k c c c E v c s C T B D c c C I H c c c b [ C a A A C % : N G [ b c c c c H I C c c c c [ B c c c C T C ",
"j b k j D X._ '.V.u % i D z k A c c c k k b c k b k k c c k c c c D k c c A k - * k k j D p b j k k b c j F j k c c x N x b D p ",
"b I G x c X.-.U.V., % b A j b x j b I C c c c c T b j j x b x j x k c B c k j - * B c j c c I z c k c c F U c c k j z Y z j k k ",
"x N c b c O.) V.h., % c D N [ N k k D k k D k k c c a c F U H j x k F T C k x - % c c j k D H k c j b k c c c k k k D F k i D p ",
"k c c T C O.) `.2.u % i A x C x k k c k k c k c k k j c i b k c C k k C c k k - : c c b k k k k x z Y z k j j z b j c c c H W C ",
"A k k I v ^ _ V.f.1 r c D k k A [ C x x C T C x j z b Y z z j j R S k c j A S e & x z J v c j l k k b k k k k k } b x c c j v d ",
"A k k x c X.;.[.U.. % x A k k A c k k k k k k k D k p D p k A F C k k c j k k % % s F b c D c A k k k k A A A k c k k k k k z k ",
"x x B g v Q #.8.r.u : x c v x c k k k k k S k k c s c B c c s s x j x C N c x - y s D j c s c s c B c v x c c c p D k k k c c p ",
"- = y % 8 * = 4 <   % % 8 = - % - - : - - - - - % $ * & $ % * & - 8 8 - % o 8 > ; - % $ : % % % % - % % % * % % - - $ - : - $ - ",
": u 1 : 1 1 : 1 : : 1 1 1 : : 1 : - 1 1 : : : u , M $ % u u , , : : : : : - : : 1 1 : 1 1 1 1 1 : : 1 1 1 : : : e % 1 ; 1 u : : ",
"V.U.c.y.c.c.c.V.V.m.m.m.m.m.V.S.i.y.V.V.i.V.V.V.`.q.; 4 ,.g.a.h.S.V.y.m.S.Z.S.c.S.Z.Z.m.m.m.m.m.S.m.V.V.u.V.V.m.= 6 e.U.T.m.F.P.",
"U.'.U.U.|.U.U.U.U.U.U.P.P.P.~.P.h.U.T.U.U.h.h.U.!.h.> , t.{.V.U.U.E.E.f.P.U.~.E.P.P.P.P.P.E.E././.P.P.P.P.~./.2.: < 0.h.V.2.T.L.",
"%.%.%.%.-.%.%.%.%.%.%.%.%.%.%.%.%.-.-.%.%.%.%.' V.s., y -.' -.-.%.%.-.%.%.%.%.-.%.%.%.%.%.%.%.%.%.#.%.%.%.%.%.! r - #.%.-.-.;.*.",
"#.#.^ ^ ^ ^ #.#.#.#.#.#.#.#.#.#.| #.| | | | %.-.XXV.< y | | o.~ #.X.#.#.#.#.X.#.#.#.#.#.X.#.X.^ #.#.#.#.#.#.#.| , 1 ! X.X.o.| o.",
"c c c c H c c c c v v v v c v c b N v N b C X.#.F.2.< - N C b l b x x x v H x x v v v v c C C v c v v c v v v c : : v v v v v b ",
"j j l J J z j j k j z z l j j k w k j S k k ..O.'.`.f 8 t c s D k j b k k c j b k k j k S F S k k k j j b k w k % # k k k j S j ",
"c c c c c c c c c c C I H c c c c c N T B N #.' P.a.- 8 V { c k c B T C a c B W c c c c c H c a c c c b T C a c : - B D c x } N ",
"c k A A A k c c c k k k k k j b c c k D k b X.-.H.S., % F j k j b i k k k k b c k k i b c k c k F k k k p k H j - % c b k A k A ",
"x v j j j j v E c c c c c x b T c x j k k N o.-.c.t.: % c k A c { C N x v C I C j c C T v x c b T N x v N C T N : $ v I b c j k ",
"C R b j j c x H c p k k c k c H x v C c k v | *.|.h.< : a c D c b x k i k c b j k k k S k D k k b c j k k j b c : $ c F c p x j ",
"k H c c k F p p c k k F c k k a k b I b c v o.-.S.d.- % a C k j j k F A A k A k b k k c j c k c k k k k S k k k - % D k p Z I k ",
"j j c R b c k F j j b K z j j j A k b p k v X.( F.D., - H Y k k x b I b c j c c [ N x x C [ C x c c c b T b c j : & c k j c I l ",
"F k c H a k k k c k c F c c c k A k c k c N X.%.XXU.; $ c H p A c c b c c c c k c k k k p k k c k c c c H c c k - & k k b c b c ",
"c c x x a B C c c c a a c c p p x x v v x x Q ( 9.,.f : a x s v k j c j c c k j k k 0 k k k k j j k c j c i k k y e a x v s x s ",
"% % - - : % % * & * : % : % & r * % & r 8 8 u 1 , 1   - e - - = y e y - - - - : > , - 1 - - , , - - - - - - r   = ; e & % e % e "
};
