/* XPM */
static char *f15d73a1c37a4cb9af07ac21a9da8c44FA7zwn6OKGIiYdA2[] = {
/* columns rows colors chars-per-pixel */
"64 64 194 2 ",
"   c #5E524D",
".  c #5F5452",
"X  c #625652",
"o  c #655955",
"O  c #675B58",
"+  c #6B5D5B",
"@  c #6D625D",
"#  c #71645E",
"$  c #6F6260",
"%  c #726562",
"&  c #766A65",
"*  c #796C67",
"=  c #776C68",
"-  c #7A6D6B",
";  c #7C726C",
":  c #7F7471",
">  c #81746E",
",  c #82786E",
"<  c #837572",
"1  c #857A74",
"2  c #897C76",
"3  c #877E79",
"4  c #8A7D7A",
"5  c #898377",
"6  c #8D827C",
"7  c #91847E",
"8  c #928A7F",
"9  c #8F8880",
"0  c #928681",
"q  c #958A83",
"w  c #998E85",
"e  c #978E89",
"r  c #9B8E8A",
"t  c #979086",
"y  c #999087",
"u  c #9D938B",
"i  c #97938A",
"p  c #A1968E",
"a  c #A3998E",
"s  c #A19791",
"d  c #A59C93",
"f  c #A99E95",
"g  c #A49E9A",
"h  c #A99F9A",
"j  c #A7A095",
"k  c #AAA196",
"l  c #A7A29F",
"z  c #ACA49B",
"x  c #AFA89B",
"c  c #B9AD97",
"v  c #B1A69E",
"b  c #B3AA9E",
"n  c #B9AE9B",
"m  c #B5AA96",
"M  c #B7B09E",
"N  c #BCB29B",
"B  c #ACA5A2",
"V  c #AEAAA4",
"C  c #B0A7A1",
"Z  c #B4ACA3",
"A  c #B9AFA5",
"S  c #B6AEA9",
"D  c #B8AFA9",
"F  c #B6B0A5",
"G  c #BAB2A5",
"H  c #BFB8A6",
"J  c #B6B1AD",
"K  c #BCB4AB",
"L  c #BFB8AD",
"P  c #BBB6B2",
"I  c #BEB9B5",
"U  c #C0B59F",
"Y  c #C2B89F",
"T  c #C3B7A5",
"R  c #C4BAA4",
"E  c #CABEA7",
"W  c #C0B7AD",
"Q  c #C3BBAD",
"!  c #C9BEAB",
"~  c #C0B7B1",
"^  c #C4BCB3",
"/  c #C8BFB3",
"(  c #C2BDBA",
")  c #C8BFBA",
"_  c #CAC1A5",
"`  c #C7C0AD",
"'  c #CCC2AC",
"]  c #CEC8A8",
"[  c #D0C5AE",
"{  c #D2C9AE",
"}  c #C6C0B4",
"|  c #CBC3B4",
" . c #CFC8B5",
".. c #C6C2BD",
"X. c #CBC4BA",
"o. c #CEC9BD",
"O. c #D1C6B2",
"+. c #D3CBB4",
"@. c #D9CEB4",
"#. c #D0C7BC",
"$. c #D3CCBC",
"%. c #DBCFBF",
"&. c #D7D0B4",
"*. c #DBD2B7",
"=. c #D6D1BC",
"-. c #DBD2BC",
";. c #DFD9BF",
":. c #E0D5BE",
">. c #E0D9BF",
",. c #C7C3C0",
"<. c #CAC6C1",
"1. c #CFCAC2",
"2. c #D3CDC2",
"3. c #D3CEC9",
"4. c #D5D2C5",
"5. c #DAD4C4",
"6. c #DDD8C6",
"7. c #D6D3C9",
"8. c #DAD6CA",
"9. c #DCDACD",
"0. c #D4D3D3",
"q. c #DAD5D1",
"w. c #DEDCD1",
"e. c gray85",
"r. c #E3DAC4",
"t. c #E9DFC6",
"y. c #E0D7C8",
"u. c #E2DCCC",
"i. c #E0D5C1",
"p. c #E3DED2",
"a. c #E2DED2",
"s. c #E7E0CD",
"d. c #E4E1D5",
"f. c #E9E3D2",
"g. c #E6E4D9",
"h. c #EBE6DB",
"j. c #ECE9DE",
"k. c #E7E7E7",
"l. c #E8EAE7",
"z. c #E9EBEA",
"x. c #EAEAEA",
"c. c #EEEDEB",
"v. c gray93",
"b. c #EEECED",
"n. c #EFEEEC",
"m. c #EFEDEE",
"M. c #EFEFEF",
"N. c #E9EBE9",
"B. c #F0EFEE",
"V. c #F2F0E4",
"C. c #EFEDF0",
"Z. c #F0EEF1",
"A. c #F1EFF2",
"S. c #F7F7F7",
"D. c #F4F4F4",
"F. c gray96",
"G. c #F7F9F6",
"H. c #F9F9F7",
"J. c #F7FAF9",
"K. c #F9F9F9",
"L. c #F8F8F8",
"P. c #FBFBF9",
"I. c #FBFAF8",
"U. c #F9FBFA",
"Y. c gray98",
"T. c #FBFBFB",
"R. c #FAF9FA",
"E. c #FCFBF9",
"W. c #FCFAFB",
"Q. c #FAFCFB",
"!. c #FBFDFA",
"~. c #FAFCF9",
"^. c #FDFDFB",
"/. c #FFFEFA",
"(. c #FFFFFB",
"). c #FFFEFB",
"_. c #FEFDFA",
"`. c #FAFBFD",
"'. c #FBFDFC",
"]. c #FBFCFE",
"[. c gray99",
"{. c #FDFDFD",
"}. c #FCFEFD",
"|. c #FDFFFC",
" X c #FEFFFD",
".X c #FFFFFD",
"XX c #FEFEFC",
"oX c #FCFDFF",
"OX c #FDFFFE",
"+X c #FDFEFF",
"@X c #FEFEFE",
"#X c #FEFFFF",
"$X c white",
"%X c #FDFDFD",
/* pixels */
"$X$X$XL.$XL.$XL.'.'.'.$X$X$X'.Q.'.$X$XQ.Q.'.$XQ.'.'.'.'.'.'.$X$X'.'.'.'.'.R.R.R.'.'.'.$X'.'.'.'.'.$X$XQ.Q.$X$X$X$XL.$X$X$X$XL.$X",
"$X$X$X$X$X$X$X$X$X$X$X$X$X$X$X$X$X$X$X$X$X$X$X$X$X$X$X$X$X$X$X$X$X$X$X$X$X$X$X$X$X$X$X$X$X$X$X$X$X$X$X$X$X$X$X$X$X$X$X$X$X$X$XL.",
"L.$XM.M.M.M.M.M.b.M.M.M.M.Z.B.M.M.B.M.M.M.B.B.M.M.M.M.M.M.M.M.M.c.c.c.c.c.M.M.M.M.M.M.M.M.M.M.M.Z.Z.Z.Z.Z.Z.Z.C.M.M.M.M.M.D.$XL.",
"$X$Xz.D.L.L.L.L.L.L.$XL.L.$XL.L.L.L.L.L.L.L.L.L.L.L.L.L.L.L.L.L.L.L.L.L.L.L.L.L.$XL.L.L.L.L.L.L.L.R.R.R.R.R.R.R.L.L.$X$XD.L.$X$X",
"L.$Xz.L.$X$X$X$X$X$X$X$X$X'.$X$X$X$X$X$X$X$X$X$X$X$X$X$X$X$X$X$X$X$X$X$X$X$X$X$X$X$X$X$X$X$X$X$X$X$X$X$X$X$X$X$X$X$X$X$X$XL.$XL.",
"$X$Xz.$X$X$X$X$XQ.$X$X$X'.$X'.Q.$X$X$X$X$X$X$X$X$X$X$X$X$X$X$X$X$X$X$X$X$X$X$X$X$X$X$X$X$X$X$X$X$X^.Q.^.Q.Q.Q.Q.$X$XL.$X$X$X$X$X",
"L.$Xk.L.$X$X$XD.$X$X$X$X$X$X$X$X^.^.^.^.^.^.^.^.^.^.^.^.^.^.^.^.^.^.^.^.^.^.^.^.^.^.^.^.^.^.^.^.^.^.^.^.^.^.^.^.D.$X$X$X$XL.$X$X",
"$X$Xz.L.$X$XL.e.I l g V V g B ( 7.7.7.7.7.3.3.3.1.1.1.1.1.1.1.2.1.1.<.X...................( ( ( J J J J P P P I 0.L.$X$X$XL.$X$X",
"[.$Xz.L.$X$X^.P p 4   * ;   1 X.o.X.o.2.X.X.$.| ! ` } } | X.} X.X.} } Q Q W M H W H F Z Z Z b b j = & , 2 2 s s ( W.$X$X$X^.^.^.",
"W.$Xz.L.$X$X^.I d Z s s s d ^ p.5.8.8.8.4.4.2. . .H  .$.u.8.9.9.9.8.9.u.#.#.!  .#.2.2.2.4.4.2.5.2.Z z z Z L #.~ 3.$X$X$X$XL.$X$X",
"W.$Xz.L.$X^.^.I u z ~ ^ ^ o./ 2.2.2.#.#.2.2.X.L W b ^ } 8.8.8.9.w.9.d.9.} #.^ } } 5.9.8.8.4.4.9.4.X.o.X.2.2.5.#.w.^.$X$X$XW.$X$X",
"L.$Xz.L.$X^.^.I u f C ~ ~ ~ ^ ^ 2.4.#.#.2.o.~ L L K / / X.9.9.9.9.w.p.X.} o.L ^ L X.8.8.8.8.9.9.#.X.X./ o.X.2.$.w.^.'.$X$XW.$XQ.",
"L.$Xz.L.$X^.^.I e h ~ L Z } ^ L | $.$.$.#./ L / X.K ~ / ^ 4.9.9.8.8.8./ } / Z ^ ~ Q 2.9.5.9.9.o.^ X.X./ 2.5.$.Q q.^.$X$X$XL.$X'.",
"W.$Xz.L.$X^.^.I w z z D C Z Q F $.=.$.@.=. .Q ~ K Z L ~ } u 1 1 6 1 f #.Q ^ W G K G o.5.@.@.=.| } ^ ~ ~ X.2.#.} 8.^.$X$X$XG.$X$X",
"W.$Xz.L.$X$X^.I y s v ~ ~ A z Z =.=.@.+.@. .G C L W L G A 1 * 2 q * 7 / L X.2.X.Q Q +.;.*.-.5.5.Q L ~ X.X.X.| W 3.^.$X$X$XL.$X$X",
"[.$Xz.L.$X$X^.P y v K L W L G / R { &.+.+. .^ K L L ^ ~ q > 0 6 q 0 2 f 2.2. .2.2.o.` [ @.+.[ O./ ^ / / ^ #. .b X.^.$X$X$X^.$X'.",
"L.$Xz.G.$X$X^.( f L K ~ ^ Q } %.@.! T O.@.5.2.} } ^ X.x ; 1 < 0 w > 6 1 X.5.#.2.$.6.=.+.' R ' +. .^ ^ ^ X.X.+.T o.^.'.$X$XL.$X'.",
"R.$Xz.G.$X$X^.( k ^ #.w.9.5.5.$.-.@.R +.-.5.u.u.d.8.d.8.1 < 1 1 2 = < e p.u.d.p.p.u.y.-.+.O.+.| | 5.u.u.8.8.$.n o.^.$X$X$XL.$X$X",
"[.$Xz.L.$X$X^...v ^ 2.p.9.9.9.$.@.*.R +.-.+.5.u.p.d.d.g.K ; 1 0 1 & < X.j.u.u.d.d.u.y.5.O.O.@.` o.9.p.p.8.u.$.M o.^.$X$X$XL.$X$X",
"[.$Xl.Q.$X$X^...b ^ o.8.4.8.9.5.;.-.E @.y.6.9.5.7.9.9.p.d.6 = 1 & o y j.d.p.8.u.u.u.y.5. .} @.$.9.9.7.8.8.u.5.! 1.^.$X$X$XL.$X$X",
"[.$Xl.Q.$X$X^...v } 2.9.9.9.9.8.$.` G ! X.8.w.8.w.4.7.9.p./ y q q 0 X.d.8.9.d.9.6.u.u.5.| Q  .5.8.8.9.8.8.8.5.! <.^.$X$X$XL.$X$X",
"[.$Xl.L.$X$X^.( z X.2.8.9.9.8.4.W b z C Z X.7.8.9.7.7.9.9.o.X.L ^ X.8.8.4.4.9.9.9.u.4.$./ G W | 8.4.4.o.4.5.2.G X.^.$X$X$XL.$X'.",
"[.$Xl.G.$X$X^.^ z } 4.9.7.9.9.X.Z Z z Z Z ~ 3.9.7.p.w.d.8.Z ^ G G / L 8.p.9.8.p.p.5.o.#.} L L Q 4.4.2.o.4.9.2.C ..$X$X$X$XL.$XR.",
"[.$Xl.G.$X$X^.I a ^ 9.g.w.d.a.K C K z Z Z F X.9.p.p.d.p.^ ^ L G G F G o.d.9.p.p.9.o.} #./ L W L } 2.8.u.9.9.X.h ..^.$X$X$XL.$XR.",
"[.$Xz.L.$X$X$X^ d A Z Z Z K A K Z z h h D L W 5.u.u.u.2.b ~ K z z L ~ ^ $.@.$.;.@.} o.2.K v L K L G z h z D Z d I $X$X$X$XL.$X$X",
"[.$Xl.L.$X$X^.P a d ; @ = & 4 C z g C D C z T -.5.u.u.6.H z b K C d b /  .T '  .+.} K D ~ ^ C K Z ; & + + & s s I $X$X$X$XG.$X$X",
"[.$Xl.L.$X$XW.P q w 7 ; = < 4 w Z V z C Z b T ' =.r.6.5.L b ~ K Z A K F H ! ' ' ' W L / X.} Q ~ y 6 < + & 4 1 u ( $X$X$X$XG.$X$X",
"[.$Xl.L.$X$XW.I 1 7 4 < 4 1 < 4 V z z Z F ! +.R ` =.+.5.u.L G L Z z H Q n c R N E O.Q ^ L Z L z 6 4 1 + * > % 1 <.$X$X$X$XL.$X$X",
"R.$Xz.L.$X$X$X( < 6 1 2 0 : 1 = Z 1.<...2.$.+.+.' ` 5.s.u.X.X.} ( ^ ! ` ' R N +.[ O.5.8.2.2.8.i & - % - % % + = 7.$X$X$X$XL.$XR.",
"[.$Xz.L.$X$X$X..w 1 2 1 < < 1 6 7.a.a.a.9.4.@.+.[ @.t.5.6.5.1.4.1.o. .! E O.' +.@.$.8.4.d.g.d.7.- % O * o % @ z q.$X$X$X$X^.$XR.",
"[.$Xz.L.$X$X$X..s 6 < : 0 1 = / w.w.7.7.w.9.$.@.+.R =.u.2.o.o.2.<.o. . .@.@.T @.-.5.d.j.g.g.g.V.C . $ = % + q #.q.$X$X$X$XL.$X$X",
"[.$Xl.L.$X$X$X..z d ; ; 4 ; e p.9.7.w.8.7.9.5.+.[ ' 5.5.| } 1.3.1.o.$.@.+.@.' 5.=.u.9.d.9.d.d.g.q.- X % @ % ~ / 7.W.$X$X$XL.$X$X",
"L.$Xz.J.$X$X^.,.z b z z f z ^ a.7.9.4.9.9.7.4.L Z B Z K ....o.o.1.2.4.5.G ^ G Q ^ d.9.p.d.g.d.d.p.C f u b Z 4.} 7.^.$X$X$XL.^.$X",
"L.$Xz.J.$X^.^...z z W Z z K F 3.9.7.8.4.8.p.X.z z z V z L 2.X.1.1.2.3.Q x Z C K Z 2.d.d.p.d.a.l.2.J L A #.X.X.o.7.^.$X$X$XW.^.$X",
"L.$Xz.J.$X^.^...a z Z Z z Z J I 8.8.9.9.9.2.S J Z f C z Z 2.5.5.2.2.2.C C z C K K P w.g.g.j.j.a./ L / Z ~ X.} } 7.^.$X$X$XW.$X'.",
"L.$Xz.J.$X$X^...a f b z z Z C K | 6.5.$.2.^ C K K f Z C v A K Z Z I K f Z z s Z K Z o.p.d.p.h.#.L o.L C 2.2./ L 7.^.$X$X$X^.$X'.",
"L.$Xz.J.$X$X^...f C f C z f Z Z  .'  .+. .! Z z f z Z C Z e ; & @ O 6 D z z C j z L } $.t.5.5.=.Q F Z D K W / H 7.^.$X$X$X^.$X'.",
"L.$Xz.J.$X^.^.( p d Z Z C Z a b ! ' ' ' -.! a Z L Q L Z z q 7 ; = ; 6 Z Z Z C K b b +.;.;.t.r.+.F G / I ~ ^ F G 3.^.$X$X$XW.$X'.",
"L.$Xz.J.$X^.^.( z Z C C Z Z b ` E U [ [ R ` ! b F F ~ K 7 7 w < < < 4 s Q K C C b | +.[ r.t. .@.$.W / K ~ #.| m 2.^.$X$X$XW.$X'.",
"L.$Xz.J.$X$X^...b / ~ X.o.} ` $.| ! c E +.@.$.Q } ^ } A * > 4 7 0 4 - ; L ~ ~ Q } y.r.:.' +.i.5.5.$.X.X.2.#.+.R 1.^.$X$X$XL.$X'.",
"R.$Xz.L.$X$X$X<.z  .9.d.d.d.6.#._ +.N [ -.$.#.8.9.5.9.8.9 = - 1 7 2 @ q u.9.4.7.5.6.5.>.*.*.r.;.4.p.w.d.9.u.+.Y 2.^.$X$X$XG.$XQ.",
"R.$Xl.L.$X$X$X..b } 8.d.w.9.9.5._ { N { +. .4.5.4.5.4.p.^ = < 1 6 - @ X.8.o.4.2.$.$.6.y.@.-.t.=.p.7.4.9.9.8.5.! 2.^.$X$X$XL.$X'.",
"[.$Xl.L.$X$X$X( z } 8.9.9.9.9.5.-.+.N ` } $.5.=.2.7.7.9.7.y = 1 ;   y 9.2.4.o.o.o.$.6.5. .@.u.6.7.7.7.7.9.8.2.~ 3.^.$X$X$XW.$X'.",
"[.$Xl.L.$X$X$X( f #.9.p.g.w.9.9.| G k x H 5.9.4.7.7.9.8.w./ w d d u #.9.7.4.7.2.1.4.} Q L H  .2.8.8.8.7.5.8.8.) 1.^.$X$X$XW.$X'.",
"[.$Xl.L.$X$X$X^ d ^ 4.d.d.9.9.7.C C d f Z X.4.9.9.4.8.p.9.K L K ~ o.X.p.9.4.8.8.7.4.G G Z z L / 9.4.4.u.5.9.2.Z X.^.$X$X$XL.$X$X",
"[.$Xl.L.$X$X$X^ a L 2.9.4.8.p.( Z P h S ^ K 1.8.8.9.8.d.X.z L K Q G G X.5.9.$.7.8.X.Z ~ Z z / L o.p.9.5.5.9.^ f ..^.$X$X$XG.$X$X",
"R.$Xz.L.$X$X$X( y L 4.d.d.a.8.S K K l Z / / o.2.5.9.u.9.I / L L } Q L L 4.4.5.$.#.H Z L v z L K ~ 2.5.2.8.5.~ j ..$X$X$X$XL.$X'.",
"R.$Xz.L.$X$X$X( s d 1 5 y t z ~ Q F F z L $. .o.$.$.5.^ / ^ K S A K L G 4.=.=.=. .H G Z z z z S K 1 ; < = 6 b s <.$X$X$X$XL.$XR.",
"[.$Xz.J.$X$X$XI y 0 + @ * * 1 D A L X.~ Z L  .+.| +.-.+.! L K ^ ( ~ b ` ;.*.&.*.-.T j Z G ~ b z r + X O o X 0 u I $X$X$X$XL.$X^.",
"R.$Xz.L.$X$X$X( q 6 % & = * ; u } ~ / ^ / } G E @.+.+.' / X.X.1.1.o.| +.' -.r.@.' ` A K Q L L G < % @ % O = ; u ..$X$X$X$XL.$X^.",
"[.$Xz.Q.$X$X$X..& < 1 < < > = 1 G #./ / o.Q R ' Q ! { +.O.2.4.3.3.o.5.u.+.$.+.| *.-.$.X./ ^ X.q @ & = = - * + ; 1.^.$X$X$XL.$X^.",
"[.$Xz.Q.$X$X$X( ; 4 - 2 2 + & ; } p.8.2.5.` ` [ ! R { { +.u.d.g.g.u.u.u.y.-.| r.:.r.u.9.9.u.f.j X % O - $ O   3 0.^.$X$X$X$X$X^.",
"[.$Xl.Q.$X$X$X( w > % < 4 X o u d.8.8.5.8.5.T R ' R _ ] =.f.j.g.g.g.u.$.r.r.' t.;.f.d.p.p.5.4.4.; @ $ * + . @ P q.$X$X$X$XL.$X^.",
"[.$Xl.L.$X$X$X( z 0 < 2 2 # = X.9.2.5.4.5.8.| T T U _ +.5.d.p.9.8.w.u.5.=.*.' @.@.5.8.4.2.o.o.9.v + + % + X u ^ 3.$X$X$X$XL.$X^.",
"[.$Xl.L.$X$X$XI z W y s e 1 z 2.X.2.2.#.} } X.A G n H ! X.2.o.2.o.X.o.#.! W G ! } } X./ Q } Q L } 6 % 2 & 1 ~ C ..$X$X$X$XL.$X^.",
"[.$Xl.J.$X$XW.P 8 j Z Z z Z z L G Z Z C z z j a p w w p l B l z z z z f s u e d a j z f j j a f d u p 0 e 0 s 6 P $X$X$X$XL.$XW.",
"L.$Xz.L.$X$XL.0.P I ( ..<.<.<.<.<.<.....( I P P P P J P I ( ( ( ( ( ( I P P P P I I ( ( ( ( ( ( I P P J J J J J 0.L.$X$X$XL.$X$X",
"L.$Xz.L.$X$X$XL.W.^.$X$X$X$X$X$X$X$X$X$X$X$X$X$X$X^.^.^.$X$X$X$X$X$X$X$X$X^.$X$X^.^.^.^.^.^.^.^.$X$X$X^.^.^.$X$XL.$X$X$X$XL.$XL.",
"$X$Xz.$X$X$X$X$X$X$X$X$X$X$X$X$X'.'.$X$X$X$X$X$X$X$X$X$X$X$X$X$X$X$X$X$X$X$X$X$X^.^.$X$X$X$X$X$X$X$X$X$X$X$X$X$X$X$XL.$X$XL.$X$X",
"L.$Xz.$X$X$X$X$X$X$X$X$X$X$X$X$X$X$X$X$X$X$X$X$X$X$X$X$X$X$X$X$X$X$X$X$X$X$X$X$X$X$X$X$X$X$X$X$X$X$X$X$X$X$X$X$X$X$X$X$X$XL.$X$X",
"$X$Xz.D.$X$X$X$X$X$X$X$X$X$X$X$X$X$X$X$X$X$X$X$X$X$X$X$X$X$X$X$X$X$X$X$X$X$X$X$X$X$X$X$X$X$X$X$X$X$X$X$X$X$X$X$X$X$X$X$XL.L.$X$X",
"$X$XD.L.L.L.L.L.L.L.L.L.L.L.L.L.G.G.G.G.L.L.L.L.L.L.L.L.L.L.L.L.L.L.L.L.L.L.L.L.R.R.R.L.L.L.R.R.L.L.L.L.L.L.L.L.L.L.L.L.L.$X$X$X",
"L.$X$X$X$X$X$X$X$X$X$X$X$X$X$X$X$X$X$X$X$X$X$X$X$X$X$X$X$X$X$X$X$X$X$X$X$X$X$X$X$X$X$X$X$X$X$X$X$X$X$X$X$X$X$X$X$X$X$X$X$X$X$XL.",
"$XL.W.L.$XL.$XL.$X$XR.R.R.$XR.R.'.R.'.'.'.'.'.'.'.'.Q.'.$X$X'.'.'.'.'.'.'.'.Q.Q.Q.Q.'.'.'.'.'.Q.$X'.'.'.'.'.'.$X$XL.L.$X$X$XL.$X"
};
