/* XPM */
static char *_cb81fd7b5df4771cac16cc7ec6baba8XahO8UaYdu1djrHd[] = {
/* columns rows colors chars-per-pixel */
"64 64 216 2 ",
"   c #071F3B",
".  c #05253C",
"X  c #0B243E",
"o  c #052A3E",
"O  c #0B2A3E",
"+  c #16283F",
"@  c #00303E",
"#  c #0C333D",
"$  c #052642",
"%  c #0C2643",
"&  c #052C43",
"*  c #0C2B44",
"=  c #0E264C",
"-  c #072F49",
";  c #0D2D49",
":  c #122644",
">  c #192546",
",  c #122C45",
"<  c #1A2C45",
"1  c #11254B",
"2  c #132D4A",
"3  c #1A2B4A",
"4  c #19274C",
"5  c #043145",
"6  c #0B3145",
"7  c #0D324B",
"8  c #0E3949",
"9  c #04324C",
"0  c #143245",
"q  c #1A3245",
"w  c #123846",
"e  c #14324B",
"r  c #1A344D",
"t  c #15394E",
"y  c #1C394E",
"u  c #153551",
"i  c #1C3553",
"p  c #163A52",
"a  c #1C3B54",
"s  c #1D3D59",
"d  c #222D49",
"f  c #202C44",
"g  c #213047",
"h  c #22344C",
"j  c #2D364E",
"k  c #233B4E",
"l  c #2B3B4E",
"z  c #3F3F47",
"x  c #363749",
"c  c #323B4D",
"v  c #3D3948",
"b  c #233653",
"n  c #233B54",
"m  c #2B3D55",
"M  c #243658",
"N  c #283659",
"B  c #233D59",
"V  c #2B3D5A",
"C  c #333653",
"Z  c #343C53",
"A  c #3B3D54",
"S  c #333D5A",
"D  c #3B3F58",
"F  c #1B4155",
"G  c #1C415A",
"H  c #21414E",
"J  c #2C424D",
"K  c #244155",
"L  c #2B4155",
"P  c #24425B",
"I  c #2D425A",
"U  c #294954",
"Y  c #324254",
"T  c #3B4256",
"R  c #32425B",
"E  c #3B455C",
"W  c #3B4B5C",
"Q  c #33485B",
"!  c #194260",
"~  c #2A4560",
"^  c #324462",
"/  c #3C4563",
"(  c #344B64",
")  c #3C4A64",
"_  c #384768",
"`  c #3A4968",
"'  c #344E69",
"]  c #3D5263",
"[  c #444255",
"{  c #45455E",
"}  c #4D475E",
"|  c #43495E",
" . c #4C4A5E",
".. c #4A4A56",
"X. c #5A455E",
"o. c #534C5E",
"O. c #5A4D5D",
"+. c #4E525D",
"@. c #634E5E",
"#. c #6A4D5F",
"$. c #62535D",
"%. c #6D515F",
"&. c #4C4663",
"*. c #454B64",
"=. c #4C4C64",
"-. c #4B4768",
";. c #454C6A",
":. c #4D4D69",
">. c #424764",
",. c #534663",
"<. c #5B4666",
"1. c #534C65",
"2. c #5A4C65",
"3. c #54476A",
"4. c #5F4469",
"5. c #544D69",
"6. c #5A4D6B",
"7. c #465165",
"8. c #4C5165",
"9. c #43516B",
"0. c #4D526A",
"q. c #545166",
"w. c #5B5165",
"e. c #565864",
"r. c #5D5967",
"t. c #54526A",
"y. c #5A526B",
"u. c #51596E",
"i. c #5C5A6B",
"p. c #564F70",
"a. c #5A4E71",
"s. c #425371",
"d. c #545371",
"f. c #5B5471",
"g. c #4A4877",
"h. c #634C64",
"j. c #6B4C62",
"k. c #624B6B",
"l. c #61456B",
"z. c #704B6D",
"x. c #655265",
"c. c #6C5365",
"v. c #6C5861",
"b. c #63536B",
"n. c #69526A",
"m. c #64586C",
"M. c #6E5B6D",
"N. c #735D6A",
"B. c #684A70",
"V. c #615271",
"C. c #6B5373",
"Z. c #7D5C75",
"A. c #745D7C",
"S. c #7B5C7A",
"D. c #755D73",
"F. c #6B606E",
"G. c #74636E",
"H. c #6A637C",
"J. c #66677C",
"K. c #746275",
"L. c #7C6373",
"P. c #7B6A75",
"I. c #73647B",
"U. c #7C647B",
"Y. c #706A78",
"T. c #7D697B",
"R. c #835D73",
"E. c #8B5F75",
"W. c #835F7A",
"Q. c #8C5D7B",
"!. c #945979",
"~. c #87666F",
"^. c #8B6B6E",
"/. c #946A6E",
"(. c #836375",
"). c #8C6475",
"_. c #836A76",
"`. c #8C6A75",
"'. c #84647B",
"]. c #8B647B",
"[. c #846A7C",
"{. c #8C6B7C",
"}. c #926377",
"|. c #926B75",
" X c #93657A",
".X c #91687B",
"XX c #936D7F",
"oX c #936B7C",
"OX c #9B697D",
"+X c #9D6678",
"@X c #84707A",
"#X c #897279",
"$X c #97717B",
"%X c #6D5F80",
"&X c #745D82",
"*X c #666584",
"=X c #746484",
"-X c #7C6682",
";X c #776980",
":X c #7B6C82",
">X c #8E5F81",
",X c #846382",
"<X c #8B6681",
"1X c #856A81",
"2X c #8F6C81",
"3X c #8B6A81",
"4X c #916582",
"5X c #956B81",
"6X c #9E6987",
"7X c #916888",
"8X c #996D88",
"9X c #93658C",
"0X c #867281",
"qX c #847089",
"wX c #8D7084",
"eX c #927080",
/* pixels */
"|.`.{.(..XOX`.@X_.+X`.].Y 5 p -.* 7 W m V 6 V <XoX).).{.{..X.X_.K m e r < Y '.oX`.`.{.{.{.`.`.|.0X,XI d m -XR < e e e < Z :X3X].",
"oXXXT...Y.wXoXoX5X.X`.8XS.< , m , & [ ;X>X].[.`.{.L.c.'.{.).5X`.`.R.(.W.D.P.$X`.3X].].{.'.(.].XX/.+X[.K.[.OXL.[.).R.L.K._.`.|.|.",
"(.].,XX.h.R.4X).'.[.T.1X<XO , ;.; , K.1X).`._.^.U.b.o.U.'.c.L.5X'.n.w.w.m.T.).E.6.2.2.w.2.2.n.K.~.].'.m.(._.`.]..X.X2X3X2X(.`._.",
"J T 1.1.=.i.i.8.2.w.q.w.U.Y O b 5 < ].h.q.u.5.1.2.,.8.y.w.1.1.y.5.5.=.d.3.6.V.t.t.1.=.t.:.=.1.y.i.y.6.:.t.q.y.k.1.q.1.1.6.6.k.6.",
"*.5.5.t.u.5.} q.2.6.=.2.'.,Xq & & < Z.n.3.p.g.u 5.5.t.8.8.t.1.=.1.1.1.1.6.5.t.*.5.5.5.5.1.1.2.2.=.5.5.6.8.8.1.,.6.5.1.1.t.q.=.8.",
"t.5.6.=.8.1.y.5.=.y.0.1.w.W.q p % e T.q.1.1.3.m =.5.,.t.t.<.6.d.*.l 7.c =.2.2.6.1.5.5.1.5.t.y.5.6.1.5.<.t.5.t.,.6.5.t.&.5.q.q.8.",
"y.&.5.t.6.6.:.< =.5.5.8.r.Y.q i * * T.o.8.8.2.q.=.y.y.1.6.5.5.;.n I =X6.6.2.=.5.t.t.t.t.1.=.=.=.3.Z =.y.f.*.3.f.:.d.*.E -.5.6.5.",
"1.y.1.t.,.y.*.K 2.t.2.w.Q.[.< % , 0 (.7X6.,.a.=.y.=.q.,.1.*.n y , m 5.q.7.u.7.5.2.2.5.6.5.5.5.y.1.U  .8.2.u.2.1.1.=.c *.t.5.2.6.",
"5.5.=.t.1.t.=.5.5.+.=.l.<X].0 & * : '.].2.1.q.1.6.:.5.;.I q 0 # m A.t.8.h.1.0 1.5.t.t.1.,.6.t.=.k.I.y.=.t.1.1.2.1.7.x :Xb.=.0.1.",
"1.y.6.1.1.y.6.1.a.2.1.0.r.R.< ; % , 2.0X1.,.t.5.q.2.=.A ;XS.'.Q.m 6.=.7.1.;.K ;.5.1.t.t.t.t.1.t.1.i.1.2.6.1.=.8.2.q.i.U.h.=.=.k.",
"q.1.1.i.1.,.1.y.a.q.1.*.w.].0 * ; * q.K.m.V.,.5. .i.t.} i.w.1.1.:.6.y.1.6.5.=.5.6.1.1.1.5.5.2.6.1.1.1.t.t.5.5.5.1.6.I.y.,.y.5.:.",
"6.2.,.2.2.y.1.5.3.=.b.t.T.'.O * s , T._.2.,.1.d.t.:.5.<.5.=.t.0.t.=.5.2.1.1.t.1.,.6.y.=.=.t.2.2.y.1.1.5.=.1.5.y.t.1.t.,.y.1.t.t.",
"t.q.t.t.t.=.=.0.t.w.k.8.@X].< o & < W.oXb.&.T *.t.6.3.t.V.6.3.4.1.t.1.6.q.1.2.,.t.t.=.Z Z *.t.t.q.1.y.6.6.6.1.1.5.t.1.,.y.1.q.t.",
"1.=.5.t.=.Z D *.7.*.,.b.).K.b O * < 3X'.5.0.] m =.=.q.u.=.8.0.=.=.5.&.5.=.1.2.y.5.1.5.1.=.u.t.2.1.1.:.;.=.:.t.1.5.2.2.5.5.y.,.t.",
"5.6.6.&.3.:.-.S n n ^ I. XZ & p * e H.A b B n n m K 0.,.0.=.t.n B m n P n I ) 9.:.&.a.f.:.;.:.=.5.;.V B B I *.:.-.n m 3.5.) m =.",
"k I ( I P a G p n B u Y M.0 1 p , - < k ! s a B B ` V n b I a B s b p G a i P m n m ;.*.m k K m m V i s s i B n B F a V V P G m ",
"n a a K a n y y p B % 5 6 , : * * % * a a , * a a B p 7 B u a a 4 ; u 7 s s B a a n n a a i a F p e % % b 2 a a n a a n a B b s ",
"* ; ; ; & * ; 7 * * : % 2 b % 7 ; ; % ; 2 % 2 * * * * & : r % % * * , X : : , 0 2 * * : % 2 e % * 6 & 7 2 : ; 9 * 7 2 , * * 2 * ",
"2 % 2 % * e ; % $ : 3 2 p P e * % % e 2 , % 2 e % r , * < X * , 6 o , 2 2 ; 7 o % ; e : < . O , 2 2 $ * & * 2 2 % * - & 5 . , * ",
"; $ % % e a a , 5 & X i B a B b a % a u a a t p P ^ : n I e o : M i , % e p p 2 - p e s e s ; ; $ & ; ; * * 0 O 3 a a , 3 3 * & ",
"6 * e , e r n b S M i e ; e n S e , e 0 r r e * < < e * I a ; 2 - ; 0 q e K I k e e e 2 , 2 2 = 0 , , , o 5 * : % * * & & * . r ",
"'.'.'.'.'.'.3X].R.K.G.[._.G.@XL.'.3XZ.{.].R.].].;XC O 6 _ M ; * l q.K.'.'.'.(.'.!.'.L.(.:XL o L G.{.].U.Z p & 2 @ < < e 0 0 C S.",
"|.|.|.oX`.`._._.I 0 g A.9Xz.A.m._._.%.(.{.`.).oX{.U.Z , 3 N e n 1.T.5X X5X'.j.3XoX0X$..XoXF.v U. XoX}.6XQ.-XR 6 Y I.,X,X,XU.[.5X",
").<X<X'.n.2.2.y.&Xd . h  .q.i.o.5.t.1.1.b.I.x.U.`.{.I.< ' 0 O t.-Xj.(._.2.y.=.t.6.:.1.6.6.t.0.t.<XT.e.+.w.[.(.(.(.5Xx.w.U.c.L.`.",
"y.2.y.y.I.y.1.t.y.D.J & 4 -.u.,.1.1.t.t.1.1.5.t.6.:X@., s.: ; O.U.y.5.6.2.1.8.5.6.3.5.0.t.,.1.8.t.t.t.=.:.t.2.y.y.5.1.5.5.5.y.y.",
",.1.q.,.y.2.1.1.=.m.I.V e h =.t.5.1.5.t.5.5.5.1.y.2.L., : % u U.m.1.t.t.1.q.t.5.q.u.q.1.1.u.t.,.5.&.y.5.t.5.1.=.t.5.1.1.5.5.5.1.",
"t.t.t.1.1.6.t.t.y.1.t.I.m t r &.5.5.1.5.5.5.5.1.,.h._.r 2 * e L.2. .0.t.1.t.t.5.o.=.q.,.6.1.t.6.6 , ;.5.,.y.1.0.1.5.5.1.5.5.1.5.",
"t.>.| t.5.6.5.5.2.:.=.i.U.P p 0.5.t.5.1.5.5.t.1.y.1XR.0 a 6 2 R.n.1.t.5.1.q.t.6.q.6.k.2.y.1.1.=.n n , , , *.5.2.1.6.5.1.5.5.5.5.",
"=.D A :.5.5.1.5.q.6.d.o. .k.m n >.t.5.5.5.1.t.5.2.K.].e e 6 2 ].U.w.1.5.1.q.t.5.9.5.3.5.=.1.1.t.6.*Xm K y m u.t.5.5.5.1.1.1.1.5.",
"1.=.=.t.1.6.y.t.q.0.,.i.o.t.=Xm S :.5.6.t.=.5.5.1.M.(., 2 * 2 _.3Xk.1.6.6.q.1.1./ r K ) f.1.q.8.1.f.&.&.f.=.=.=.t.5.5.t.1.1.5.1.",
"q.t.t.t.1.6.6.1.6.=.f.4.u.q.1.;.m ;.5.6.t.=.t.5.6.I.'.y ^ e % x.{.w.1.6.6.t.1.1.H.Y k Y 1.,.t.=.2.,.f.=.5.6.,.C.t.=.=.y.1.5.t.1.",
"1.5.5.5.5.6.5.1.6.y.1.d.5.w.Y.D m 0.5.1.q.=.t.5.2.b.L., M : e K.'.w.=.5.5.t.q.6.w.(.'.;Xc 7.5.6.q.1.,.1.5.5.t.*.=.T } t.1.1.y.1.",
"5.t.1.t.t.1.t.1.5.t.t.5.5.t.t.6.I.y.,.1.5.5.6.2.q.O.'.< i 4 w (.r.=.u.t.6.6.2.t.t.y.t.5.5.5.5.5.t.*.m g *.6.6.1.:.>.A >.t.t.t.0.",
"6.5.5.5.5.1.1.1.t.1.2.2.1.1.1.2.2.6.y.t.t.0.:.t.2.1XW.+ u & # ].].k.5.{ 5.y.1.8.=.1.t.5.1.2.6.2.1.y.5.=.0.8.=.y.6.t.1.t.5.,.2.1.",
"1.1.y.1.=.t.0.u.=.1.6.6.5.5.t.t.2.2.=.0.*.m m ) t.-X'.q 5 & 0 ].,X6.=.Z t.t.2.2.6.2.2.2.1.t.t.=.0.=.=.t.t.t.2.6.1.=.=.=.1.5.y.2.",
"0.;.>.Z S ) V g Z *.t.:.=.*.7.*.5.y.*.V n b B P m Z H., o * + U.Q n K n ) =.=.3.5.5.t.t.;.7.*.Z j m L *.3.5.1.=.9.R n n L *.0.;.",
"h m m n b B P B r I _ S m V V n R ( I b b B b a a a : % P 2 0 j t a p B I P n P a a n n b S ;.:.9.I r n S ) R a B i a G a b n b ",
"* a s P i ; p G F s B B b a a a B a a B P a i P p e % a i * & 5 * 2 2 i i B p p * 7 a B a b V V p a B B a a a a a 2 7 ; * % , 2 ",
"* * % * e ; * * 7 * % % * * % , * e ; % * * ; % 2 $ % B 2 * 7 & * * % 2 , , 2 2 * % % ; ; * * * 7 7 * % * * 2 2 2 $ % % , 2 * % ",
"% * e * X , , , % , , * % * , , ; % * ; ; ; ; % e r B r a e + < , * % * * o , : * * * * * * * , > , 6 * , % * * * * 0 * , r * 6 ",
"; p B r 2 i a 3 & o * * . ; ; u a a a * , y t p * 7 i 2 b a , , ; * * * * * % % * s u B / d o B N y 8 4 = & 7 ; n b , , a 2 . 2 ",
", * * e , , 0 t 3 B 3 3 2 3 $ u ; % ; 2 e e & 2 O , , , e * & 7 , e , , : , * 7 o * 2 6 V ) * % - O e 3 1 *   : * $ * ; . 0 r , ",
"y 0 k 8.I.<X].'.].P.).P.P.(.z K.6.Y H 8.Z.Z.[ F ).].<XqXJ.m q F E.R.).].3XU.2. .8.Z j & * V * , & C 8.| S K q B 6 e q Z ,.U.].).",
"'.'.)..X]._.`.oX].c.).{._.`.O.T.]._.L.#X|.$X(.'.`.|.}.}.oX).4X]._.v.@X_.`.eXR.{.[.].A.n & b e . 0 L.{.{.'.L.{.U.'.'.Z.{.].oX`.oX",
"{.{.{.(.c.o.x.K.5.1.5.y.5.5.f.5.2.y.b.(.E.].n.t.L._.`.{._.c.L.2X-X,.y.w.b.'.].4X].5X<XZ & i e * , ].).`.{.).].j.x.U.M.K.{._.#._.",
"2.q.t.t.5.5.-./ t.t.1.,.1.=.6.1.5.5.=.y.e.y.1.a.t.t.5.,.q.1.i.1.B.6.5.t. .1.m.1.2.O.'.| t s $ % K U.x.q.1.q.e.=.1.q.1.i.t.y.1.5.",
"=.0.0.:.3.f.a.-.3.=.5.=.y.y.=.f.8.t.2.1.q.=.=.5.d.&.5.t.d.=.=.5.1.q.=.q.y.1.1. .=.e.[.w.O s 2 , i b.1.7.6.6.,.6.=.t.t.5.=.-.5.d.",
"y.2.2.2.1.1.q.w.6.u.2.t.=.2.7.1.2.y.5.-.1.1.y.5.1.2.m.2.1.t.t.5.q.1.t.3.a.-.C s.6.y.E.'.f e 7 * 0.'.q.7.6.1.8.1.t.1.2.1.w.1.1.1.",
"5.t.1.1.y.2.6.5.5.2.t.u.2.2.t.1.t.=.A =.t.,.2.1.1.q.1.t.t.5.5.5.1.y.1.y.1.:.S V 5.1.n.L.2 , i 6 O.3X1.t.,.t.y.=.5.5.5.5.5.5.1.5.",
"5.5.t.5.1.t.=.0.:.t.t.=.8.u.1.6.2.6.H.t.5.5.q.u.t.t.1.5.1.1.5.5.5.=.1.,.1.0.) L =.y.I.[.e * , 6 '.U.t.5.2.1.1.S 5.5.1.5.5.5.5.5.",
"y.1.1.t.5.0.m r r k =.6.t.t.5.=.2.6.6.6.5.5.5.=.=.1.=.1.5.t.t.=.% h 7.t.1.1.y.=.-.y.n.N.e * % e E.h.=.1.y.t.3.L 5.5.5.5.5.5.5.5.",
"1.5.t.5.5.>.9.L 6 w L =.6.4.k.1.t.=.1.t.,.y.1.f.t.y.6.6.t.t.| j e b *.t.,.2.2.1.5.1.X.@.7 p , e _.x.q.1.5.1.6.9.5.5.5.5.5.5.5.5.",
"5.t.t.1.1.{ *.m &X%Xm h 0.t.8.t.=.t.y.1.y.5.t.=.,.6.,.3.5.8.E < =.5.t.5.1.5.=.t.5.1.n.N.e p , , G.U.i.5.2.=.5.y.5.5.5.5.5.5.5.5.",
"t.=.1.5.y.H.y.=.A V.>.Q =.=.1.k.2.y.} 1.y.=.*.< 0 W u.y.2.k.A.-X1.1.t.=.t.5.5.t.5.1.'.`.e t , , $.'.1.5.6.0.5.6.5.5.5.5.5.5.5.5.",
"5.t.t.1.,.y.2.t.=.1.1.1.5.f.t.,.6.2.1.y.1.t.Z m =.5.1.,.1.1.t.q.y.=.>.D >.t.6.,.8.w.].).e p % 2 L.3X1.1.5.5.6.5.5.5.5.5.5.5.5.5.",
",.y.5.1.i.1.y.1.2.=.y.1.5.6.,.u.t.1.t.,.2.5.:.;.5.1.1.q.q.1.1.2.2.6.t.7.Z 8.u.q.=.w.].).2 p % e }.[.t.5.5.1.6.8.5.5.5.5.5.5.5.5.",
"1.,.6.y.0.8.:.5.5.6.y.2.=.;.Z *.:.u.1.6.,.1.t.5.:.5.1.6.1.5.t.:.,.5.y.=.=.:.;.Z :.1.3X].0 2 % , '.'.2.5.=.:.y.,.=.=.=.y.1.1.1.y.",
"7.:.:.>.m h R ;.5.3.5.>.I a p P n =.5.>.T &.t.*.K n L ( R k n B n I ( I n B K a a Z U.7X, e % e J.A j 9.I m ;.*.n m R ( m m m ( ",
"b m V V a p B B K n n n B r P a n n m 9.9.I n m p i B ( ' B B s a a B P a s s G s a Z H.r X 2 6 y n t a B B b I a a p B a a B ~ ",
"a a r * & 7 p B a i a b B a B i , * * n i 6 & , 2 2 u b B b i 2 B B i B b B i i N t 6 0 & 3 , * * e s s a B i a s u e i B B a i ",
"* , e * % * % * % % , % * ; % 2 & 2 % * * , * * $ * e * * * e * * ; * 2 * e 2 2 2 2 * X 5 i % , 2   2 2 X , e * 2 % * % , , , , ",
"* * * * * , e , * ; ; ; - 7 % , * * $ 2 7 % X e ; * % * * o * * * ; * * * e * O % % ; V B B ; & * 2 2 . e t * & * * * * * % * * ",
"% 2 a e , % e a b b i u 7 7 e * % e ; 2 * * e R B r , r e , , % a a r 2 r e , * * * G b b ) 7 5 % $ * * p 7 & & * ; a a a e e % ",
"% * ; ; % % ; 7 & * * 2 , < :.&.* e % * * * : e 2 ; * p ; * % 2 * ; 2 * ; * e s p B p % 7 * % > % % , * , % 2 2 , , 2 % 2 % 2 % "
};
