/* XPM */
static char *_350f8b15e794c63bebbe89367ab7ac7ZDj9mlKdLweolPEB[] = {
/* columns rows colors chars-per-pixel */
"128 128 59 1 ",
"  c black",
". c #070707",
"X c #0B0B0B",
"o c #170F07",
"O c #0F1700",
"+ c #0B1707",
"@ c #171F07",
"# c #1F170B",
"$ c #131313",
"% c #1B1B1B",
"& c #2B230F",
"* c #232B0F",
"= c #372313",
"- c #332B13",
"; c #3F2F17",
": c #3F2B1B",
"> c #2F371F",
", c #232323",
"< c #272727",
"1 c #2F2F2F",
"2 c #373F27",
"3 c #373737",
"4 c gray23",
"5 c #43331B",
"6 c #4B371B",
"7 c #473323",
"8 c #4F3B23",
"9 c #4F3B2B",
"0 c #533F2F",
"q c #3F472B",
"w c #474F33",
"e c #574333",
"r c #5F4B37",
"t c #53573B",
"y c #67533F",
"u c #434343",
"i c gray28",
"p c #4B4B4B",
"a c gray31",
"s c gray34",
"d c #5B5B5B",
"f c #6F5743",
"g c #775F4B",
"h c #5B6347",
"j c #676B4F",
"k c #6F7357",
"l c gray39",
"z c gray42",
"x c #6F6F6F",
"c c #7B7F63",
"v c #777777",
"b c gray50",
"n c #836B57",
"m c #8B735B",
"M c #9B7F6B",
"N c #9F876F",
"B c #A78F77",
"V c #838383",
"C c #8B8B8B",
/* pixels */
"kkkjj-@@@@@-@55#-khtw-@@@@@-@cgghhqqh-@@@@@-@hkshhtht-@@@@@-@#tt-#$#o-@@@@@-@2qwqch1u-@@@@@-@-whhu-,q-@@@@@-@ttwq22&&-@@@@@-@thh",
"kkk>-2wtttw2-@5<<hk>-2wtttw2-@ckgkt>-2wtttw2-@jhhhw>-2wtttw2-@ua<$$>-2wtttw2-@2hht->-2wtttw2-@-ht-->-2wtttw2-@htwq2>-2wtttw2-@tt",
"jh*>qthhjhhtq>@5#q*>qthhjhhtq>@kkk*>qthhjhhtq>@tkw*>qthhjhhtq>@11-*>qthhjhhtq>@q2-*>qthhjhhtq>@iwq*>qthhjhhtq>@wq2*>qthhjhhtq>@t",
"h>>qqthhjhhtqq>*5>>qqthhjhhtqq>*h>>qqthhjhhtqq>*t>>qqthhjhhtqq>*->>qqthhjhhtqq>*->>qqthhjhhtqq>*t>>qqthhjhhtqq>*q>>qqthhjhhtqq>*",
"h*>qqwthhhtwqq>*q*>qqwthhhtwqq>*w*>qqwthhhtwqq>*3*>qqwthhhtwqq>*1*>qqwthhhtwqq>*h*>qqwthhhtwqq>*#*>qqwthhhtwqq>*q*>qqwthhhtwqq>*",
"t>>2qqwtttwqq2>>t>>2qqwtttwqq2>>w>>2qqwtttwqq2>>h>>2qqwtttwqq2>>q>>2qqwtttwqq2>>a>>2qqwtttwqq2>>3>>2qqwtttwqq2>>h>>2qqwtttwqq2>>",
"t2>22qqqwqqq22>2t2>22qqqwqqq22>2t2>22qqqwqqq22>2t2>22qqqwqqq22>2h2>22qqqwqqq22>2a2>22qqqwqqq22>2t2>22qqqwqqq22>2t2>22qqqwqqq22>2",
"w2*q2>>>>>>>2q*2q2*q2>>>>>>>2q*2k2*q2>>>>>>>2q*2t2*q2>>>>>>>2q*2h2*q2>>>>>>>2q*2h2*q2>>>>>>>2q*2t2*q2>>>>>>>2q*2-2*q2>>>>>>>2q*2",
"t>*q22*>>>*22q*>q>*q22*>>>*22q*>c>*q22*>>>*22q*>2>*q22*>>>*22q*>q>*q22*>>>*22q*>t>*q22*>>>*22q*>q>*q22*>>>*22q*>$>*q22*>>>*22q*>",
"t*@tw2>***>2wt@*h*@tw2>***>2wt@*h*@tw2>***>2wt@*q*@tw2>***>2wt@*t*@tw2>***>2wt@*-*@tw2>***>2wt@*5*@tw2>***>2wt@*+*@tw2>***>2wt@*",
"t*>hhtw2*2wthh>*h*>hhtw2*2wthh>*h*>hhtw2*2wthh>*h*>hhtw2*2wthh>*t*>hhtw2*2wthh>*o*>hhtw2*2wthh>*-*>hhtw2*2wthh>*#*>hhtw2*2wthh>*",
"t*w>@OqwqwqO@>w*t*w>@OqwqwqO@>w*k*w>@OqwqwqO@>w*w*w>@OqwqwqO@>w*h*w>@OqwqwqO@>w*-*w>@OqwqwqO@>w*5*w>@OqwqwqO@>w*1*w>@OqwqwqO@>w*",
"t*qO  @>t>@  Oq*w*qO  @>t>@  Oq*h*qO  @>t>@  Oq*2*qO  @>t>@  Oq*a*qO  @>t>@  Oq*q*qO  @>t>@  Oq*<*qO  @>t>@  Oq*i*qO  @>t>@  Oq*",
"32wO  Oq*qO  Ow2w2wO  Oq*qO  Ow2t2wO  Oq*qO  Ow2>2wO  Oq*qO  Ow2t2wO  Oq*qO  Ow2q2wO  Oq*qO  Ow2q2wO  Oq*qO  Ow2t2wO  Oq*qO  Ow2",
"hwh>@@2* *2@@>hwqwh>@@2* *2@@>hwhwh>@@2* *2@@>hw*wh>@@2* *2@@>hwtwh>@@2* *2@@>hw-wh>@@2* *2@@>hwtwh>@@2* *2@@>hwtwh>@@2* *2@@>hw",
"hwhhtw*@@O*wthhwwwhhtw*@@O*wthhwhwhhtw*@@O*wthhw2whhtw*@@O*wthhwrwhhtw*@@O*wthhwqwhhtw*@@O*wthhwtwhhtw*@@O*wthhwtwhhtw*@@O*wthhw",
"j2q>@O>O2O>O@>q2h2q>@O>O2O>O@>q2k2q>@O>O2O>O@>q2q2q>@O>O2O>O@>q2o2q>@O>O2O>O@>q2h2q>@O>O2O>O@>q2t2q>@O>O2O>O@>q2q2q>@O>O2O>O@>q2",
"jc2O O*2w2*O O2cjc2O O*2w2*O O2cjc2O O*2w2*O O2jwj2O O*2w2*O O2jqj2O O*2w2*O O2jhj2O O*2w2*O O2jtj2O O*2w2*O O2jwj2O O*2w2*O O2c",
"jjckO@@>*>@@OkckjjckO@@>*>@@OkchjhckO@@>*>@@OktwhhckO@@>*>@@OkcthtckO@@>*>@@OkchhhckO@@>*>@@OkcjsqckO@@>*>@@OkcwwwckO@@>*>@@Okch",
"jkkjOO@*@*@OOhjkjkhjOO@*@*@OOhthjkhjOO@*@*@OOh&qthhjOO@*@*@OOhtttttjOO@*@*@OOhtthtqtOO@*@*@OOhthtttjOO@*@*@OOhttwwwjOO@*@*@OOhtt",
"jkkjq@*qqq*@>tjkjkjtq@*qqq*@>thhkkgjq@*qqq*@>t22thhjq@*qqq*@>ttqwwwjq@*qqq*@>tqtaq1w>@*qqq*@>tthhthjq@*qqq*@>ttqttwjq@*qqq*@>ttt",
"tjkhthkkkckhtqkjjjjwttkkkckhtqtkkkkjjkBkkttttq2qwthjjkcBBBkhtqhttjjjjkkkkckhtqothu2hjkkkkckhtqttthhjcccccckhtqhttqtjjkkkkckhtqwt",
"2thq2tjhkgttrgjjjhw279tjjjhhtwwhhhhkhhkht>>>qwtwwwhttkkkccckkjjjjnkkcgnkchtttwwwhtttttttthjjkccjjjjjjkccccccncnhwqqwwwwwhw>>->22",
">0w2whjtkhqwrgfyww255qjhhhhhhtttkhgksthw2>*>qthtwwttthkkckgjjjjtjjkkccckhtw20wtttqthtwwwtthjjjjhtwtttpjkkcckjhhtwqqwhthttq------",
"#>>wthhhgtykhhhtw2;->2wttwtjhjjhtthhhtw>****2hhhtwwththkckhjhhhhwhjkcccjtw2>2qttqqqthq-quqhkjhttwqqwqqthtthhttwqwhttttstw2-&**&-",
"#>thhgghhhhhthhw2>-;522qwqwthjhhhthqkt2****>wthhhhtttthkkkjjhjjhtthhkccjhwq22wwththjjhtyhhkjtwqttw22qqqqtttwww>2wqthtwww22------",
">wjjkkhjtw2qkhwq---62q-2qtqhthtwqthctq>****>htkjhatquthjkcjjjjjhttjjjkkkhtttttwwthnjkhhtjkktw22whht1>2wjhtttq>>2qtttwwwq22-->--1",
"2tkjkkhhtwwwiw2----;6q-q2>2wtwwqwtkhq>***>>22qtjtqtqwtthtkjjhhkhhttkhjkkjhtjkkhwwhhkkhtjknhw222whmjtq>wtttq2&>>qqq0ttq2qww2221--",
"thkkkkjttthw2>>>>>>>>>>2>>>>>222qthw>***>wtw2-2wtwwq2wtthjjjhhchhqqhhjkkkhtjkhhww2qtchtknjt2222qqhkhqqwwwq222q2>2q00q22qjh222-,-",
"-tkhjhttthtww2>>q22>22>2q22>>>2qqhtq2>**>ttt>&&>wpqtqqttthjjhwkktqwhjjkkhhtthhtwhw2qttthjtw2qqqwwtkhwu22222wq0t22qqq222ttkjq>,,-",
"-#>222--->>-122222qqw>->>>222q2qqqqww2>>>qq2qw2>222>-2->32>>222>222>&>2527q22222>>w>>>>22223qq2222222222722q22222252>--#->>>22>>",
"%o@%%%@ooo@%%*%%**>*>*oo##@@%**>*>>>>%$@%>>>>>>%%%%o@*%%%%@@%%%@%%&*%@%%**=***%%%%>&oo@@*>%*>>*******>*>*>**>*%**%%%%@X.Xo@%%%@@",
"dllxlxxxxldddaadlllxxxxxxllxlxxxxxldddlxldxldlxldllddlxldllxxxlllxxxxxlxxxxllxllxxlllddlldddllllzlllllllllllllxxlxllllllddddaddd",
"1auaddlllapa4<<1ddaaadxxxapaaddadddp41paddauaapupuupuppaaaadlldappdxddddadapaduaxldap44aau44ualdappaapup4pppuppupppuppadau1431ua",
"<uadadlxlap41114paaxxdlxdaadadddddauu4adaudauadiupauupdauaadllapadddddaddxlppdaaddaap4uaa14uaddasaaaaaappaaappddadappppp4u1111uu",
"uadpadlxaau4ua4uaudxxaaaddaaaddddaapppaaaaaauaadapu44paauppaddaaaadddaadxxdpppdddauappudau4upadaaaadddpppaxdpplddldadaa4up411<1u",
"aaaaadxddaaudaaaaaxxxapadxaadddddaappppaaaappuddapuuuuaapuaddaddaaxddaalxddaaaddauusaaupaapuuadaaddddappaaadupalllldsddpaau1111u",
"aaadaaxadxxaddaddxxvxlddldadlldxdapppupaaadapadddpau44udppdduddddddxxdadxdddpdpaduadap4pdaauuddaaaaaappaaaappppalxlldddaaaa41111",
"aadaddadddxaapaldxxvvxlvldadddddddpuuuupaadaaaxldadpu444ppxdaadapdlxxlddxaappadaaupaap4paaaaaaaddpuuu44upppaaappdxxllladaadu144u",
"udaaalxddaapupaddxvxxvapddaxdllalaadappupaddapspaddapp1114pppaaaaaaalxddddp1uppauupada44pppadadpu44ppppppaadllppalxlldddaaauu44u",
"apuuaxdllapuualaaxxxvxdaaaadddddddddaaupuaasauuaddxapu11<114uuupu4uppaaaap1,,4ppppaaaa414upppau4111pdlldddllvxlllxvxxdldaaauuu4u",
"uupadxxxdaauadapaxvxxvxdapadadadddxaadap4uduuuaxldxdpp1111<<<<1114papppuu4114paxdaaapa4<1<1111uuu4uplxlldllxxxlapallxxxdaaudauua",
"1upaxvxdddsaaddppdxxxvxxdappupdpaadsddxauuuuppdlddladpp1<111,,,11padappu1,11pddldaaaap41<<<<1upappuudxxlllxxxxlapxdlalxxpuadauup",
"uaadxxdddxdaaaddualvvxxxdadpuppppalxdxvsuu44padlaladdpu,,,uu1114udddddau4uuuppalldapu1<%%%<1uadlddppalxxllldlxlap4padlddppaaauaa",
"adddxldddddaadxxpadvxvxldadppppaadxxxxsapu4uaddldddappu1,,4pp44uupldldappppppppaldlp1<%%%1lllllxxlapalxllllllldp444paddpppsaappa",
"aadddxddlddddxxxapdxxvxdadpppdaaadxdldpupuuuaxddldauupp4,,<upappppadaappaddddaaaalla<%%%144palllxxdpalllllllldpu141pddpu4pppppua",
"addddddlddddddvxapavvvxdappdddddaaadaupppu4uddiaauuppddp1<,4adxlappaau4udaaaddaapdllu%<1u1uppdxdasdpalllddddap44444ud44u4aupppua",
"aaaaaaadaduddsxddpaxxlxlappadllvdadaapaupa44padlaadaaxda4111uadaldxddapuppaupppppallapppppauuddaaaaddllldaaapu1up441uu4uuapuuuud",
"<uppaupdauadddldlapaxdldppadlxvxlllldppapa4414dldddduddapuuuuppaduadaapuuppu3up4palllldaalaaaaaaaadlllllldapuuuupu41u44uppauuuua",
"a1uupuaduuppxadxdapppxdapadxxxxvxlllldapp41<14pdaadladdppppppppuaaadddapuapauuupadlllldiipaaddddaadlllllxdaadlldapu14uuuuuu441<1",
"<<<1ppudaupaaaxxddappappaadxdxxvvxlvxlda41,,14uupuadalapaaaaaapppaadauaipuuauppaddapalaiuupadddlddlllllxlsddadxldpu1uuuu4441<,%<",
"%,<14upaaaaaalxxxddapu44paaddxxxxxxxvlda4<,<4u44upaaaxaaddadaapuupaaauaupuuaaaaaapp4uaaiuupaaddddlllllllxddpadxvlp44uuuuuu44<,,<",
"$%<1114uadaaaudxxxddp414paapddxlxvxaadau41<4auddpapaddadddxladppupaaaaauapaadpu3iu144paiuuusdaaaddldddalxldppdlxdu114uuuaiu41,,%",
"$%%<<<14pppaapddapupu414papaldxdxvxpadapu44paidppaaaddaadxxddpapppaaadaaaallup4<3<<114puuuaaadddaddaadddllddadxldu11<uuuuauu41%%",
"<%%%%,114uuppaaaa4uuupu4,ualxlxxxxvd1udppauauaappddaxdddlxddaadapppaaadddlappu4<<<<114upppadadddaaa4pdlddllddadxau414uaaupu444<%",
"%<%%%%<114uaaaadaappadauupadvllxxlla<up4u4uauadipdaplxxlaaaaddddaaaapppaaap4uu4<<<<<44uaaaaaudddauuaadlxdllddaadauu4uaaasuppuu41",
"1<<%$$<<14adaaaapaaalxdpupaadddlxldp<u4141uaddadaaaalllxappaaaaappuuupaauap1uau4<<<<4ppdldauuaasdauaaddldlxlddaapuu4udxaadxaapu4",
"4411<<1114pddauaaauddldppppaaaaaaap444141udddaddaaadxldapppappppaupppaaapa4<4uau4<4upaaaldauuaaaaaaadddllxxxdllapppuuddaaxxaauua",
"4udu11uu<11uaaaaadaadxdp41upppu4441111144updapddapadldddddllapp4ppappaaapu<<<uaapuppaadddapuussasiuaasdxxxdlddxxppauuddpadddauuu",
"uuap4<pau111uuaappuuaaa41<1u41u4444u4414pupp4uxdaaddaaadddxxlap14uaaaaaapu434uaxdalaaaadappiuauuaupaddddddlxxdxxpuuaadaddsaddauu",
"4updu4aap<11uaaapuupaau,<,,144u4upppppppaapppadladddaappadddxdp11uaadaapuuuuuadxlldap4paaaaa4uu3uupaadxdddsxxdxduuuadddxxdaaddpu",
"uaauppddau31aaapuuppdp4,,,14ppppddddxaaaddaapadladdlllppadxaaxa411paaaa<3uuuadllddldp4paaadadu344uaaadddddaxxdxduuupalxddlxdaiuu",
"44444444411114114111<,111444uuu44uuu44uuu444uu11,1444411144414444111411<<<<111141<<<<1444uuuu14<<<$%1<4444444u4143<11uuuu4414411",
"<<%%%<<1<%%%%%%<%%$$$$$%%%%<%%<<111<<<1111<111<%%%%%%%%%%%%%%1<<<<%%%%%%$$%<%%%%%%$$%%%%<1111%%%$X$$X$%%%<<%<1<%%%%%$1111<<%%<<%",
"xlxxlxxxxxxxxxxxlddsdddddddlllxxxxxxlxxxxxxxxxxxxxllllldlllxxxxxxlllxllddddlllldddssdlllxxxxxldddddddsdddllxxxlldlvlxxxxxxxlllld",
"upaaaddxdapppaadp41<,<144uadaaddllldddlxlldllxdappppuppuppaaaxddddppaaa4aaaaaaaai3uuppaadxxvlauu1<<<14uuaddadxdpuaauadxxxllaaddu",
"ppddadddddddxdddau1,144414uaaaxxllllalxxlldxlxddldppppp4ppadxxdsdappdapaldaaaaapppu44paadxxxxauu1<<<<1uuupadxxap4aladlxlxxxauaiu",
"ddpdddddlddddxddap11upu4414paxaddsaaalxldlxxlxiaaddddaaappddlddddaapuppaapadaaaau444paadddxldauu<<<1<1uuupdlxxap1pdadlxlxvvauaau",
"xxdldvdlllddldddapupaap44uuppaddxxlllxxxldu,upa<dxxxdxasuaxdxxaxdapu44upuaaladxau<<paadaaaaddlaa1<<,,<4padlllllp1uadxddxxxxxldad",
"xdxlxxdddlladuuapppdxxapppppaddxxdxddxxxxa1uxdlaxdlxdxxsaaxxxvdxxdp4<<<4paauauddu<4pdddpapaddlpu411,,14pdlllldapuudaddldalxxdaad",
"alxvxvxaadxdauuuuaaddldaaaddxxddadxapxxdauudxxxpddxxxxxaadvxdxxxxdp41,uuuuuduuppu,ualldapupppppppuu44144pdddldap4pdaadxdalxddadd",
"adxddaaalxva41uuddddxxvllldvvvddxlxxdddauaaaxxxudpxxxxdapaaaaxxldp4u4u<uuiapduppupavxxdpuupppuupuaaap4<11uupxdpppdlaaappppaappda",
"aalddapalvlp%1uudxxxxdxvvlpvvxadvxxxvvdapuadxduixlxxxxxxxapaadaappuau3aduauaudpuualvvlapuuudpu4pudaua4<<<1uuaaauaddappppaadxddda",
"adaaaaadlvdu4u<uxxxxxxxvvvdddapavvxxxVxauuuxxuddlxxxxxxxxdpuuuup4up<auadddapaap4advdddapp<uddp44upaap41,,1upaaaaapappaaaaaaddlxd",
"dadaaaaxxxauuauaxxxddxxvvvvvd41pddxxvvu3au4dd4aaxdxxxxxxxxp<upaluuu11uddudduaauuddllddapauuddpuu14pa411114udapauppppppdadaaapdxl",
"dauaddadvxau4uaaavvdxxxxvvxvxauppaadxduau<uuuauaxxxxxddddd4uppaapp3<ippppdadaapppdlldlduauupappuuu41111444ppuuupaaddaaaddaaduaxl",
"aaadaddxxlp444udadxdxxxxvvxxxdaxddaaapppp<a<usddxxxdpuuupppxdaaaapauapuuaaddpppaalvvvlaauuuudpppap41,1uaupapu4adddddaadxlaadaadd",
"aadpaddllda4<uuuupddxdlxvvvxdddvxxvxpuappudaaadlxdppaupdlxddaaxdaaaauapaapaduupddlxxxlapapada44pdp1114uppaxdpuppaadaaaxxdappadda",
"aaaaaddddap4uuu34aadxddxxvxxddxxdddxdaauppuppalxduuaaupdxxxlaaxapddaadaldppp44alxllxvdappaddd4upap1udupuaddapaappaaaapadappppdau",
"aaadaddddap4ppuu4uaddxxxxlxldxxaaadxpuuuuuupualdauadlduudxxdadapddddddadap4u,4addlllxxdapadldpppauuuapppdduapdaaaaapapupppppuppp",
"aadadddddau4pap444pddxvvdadadddapdddu3dsuuuppadauadxlla4uaadxxddxxxdxdaxp41,,uapdxaadxldpplxxapapuupdppaxdaapapdlldapuu4uppppuau",
"udaaadddddup4paupauxadvxddxapdxlu<adauadapuupupuaddxxddpp<udxxxddxxdxdpap1<,1uddpappaldap4adduuup4apppadxdpapaadlllapuppppaddauu",
"iiupaddlxxda4uapavvuppdllxlppdlxdu<udaupaappu14addllllxa4<,alxxxxxxxdddda1,,4plxdpapppapp44aaapupdadpuppdddpuadlxlauappaaxddddaa",
"uuuadlxxxVxaupauaxCx<ualxxduuaxxauuidduuaapuuaadllldlda4,,1pdlddxxdxxdaap1,4palxxdpu14appdapdxddaadadaupadpuuaddaapppuppaxladxda",
"auualvxdlvxupadaadxxauaadda4ualxu%<uadaaaauupadddxlxxdau1,1pdldxdxdxdxpp4<<ualxxlldp44pppdaaalddlaadadpppapppadapaadapuadllddlda",
"uaddxxddlvxlaapxdaadlapppp4uuadx<%uuaaaappaupdaaddlllddp4<4palxxdxluxa441<4pdxllxxxa4puuulaaalalxaadddapaappadppaddddppadlxddxxd",
"adddxlddlxxldpdvdaadldau11114pdl<1xauapauuappppadddddxdpu14padddaaaxap41444axddxdxauup4u4ddaaadddddddddapdupldpupaaappaaddaaadld",
"aadddxddlxldaddxpadladxu,,1<14pxu4aaaaaauaaappaddxdddda<4uuuaaaaap3<4u1444psdxxdxxdxxdpppdldappdddddddddp4upppaddddddaaaddldddda",
"addaaddllldaauaa4aadlllu,,,,<13xdaaaaddiaadappaaaaaaaaa144upaaaaap<<uu4114pdxxluvdlxvlappaldapadddddddddau144pddddaddaaaadddadaa",
"aaaaaaaaddlldapddaxxlau141<<111pupadaaauauuuuuaappppppu41114paaapu44uap<%%<adxlxxddpllapuudaappxxddlllllluuuaaddxxxxdadxdapuppua",
"aapapssdddxxdaadlpaddp11u411444uuuaaaaaauiu<uuua4u4444u<<,%1ppppu444ua1<,%<udxvxvxaadlapuuuaappalllxxxxxdp1pdxllxxdaaadxxsuppppp",
"apaapaadddddsppddpaxp1<111144pupuuiuaddauauuuuuu111134u<,,%<ua<u434uuu<<<%$4pdddaaalxvdu4uudddpplvxvvxxxdppxlxxlddappaaxxaauuuup",
"paapuaaadddddpuadpaxp<<1uu11uiiauuuupadadaaau4a41111<43<1<<<d,4%334ua<<<<,%3padduualvxa444udxxaplxvvvvxxaadvxxxvvdappadxdppuppup",
"paaauuaaaapppuupapadu,<1uuuu1uuaiu<aaddaddiiuup4111<14ui<<uua<u,u4uuauu,$,1<paaaiaalvdu4apuxxxdalxvvvvvlaadvvxxxVlaupaxxaiuadduu",
"4441,14343u4444411p111144443uu4444444444344u444444341<<%<1114411<%1444<<<11<144444uup1<111444u4uuuupp4111uu4up414441<4<134114441",
"%%,<%%%%<<<<<<%%%%1,$$%%<1%<11<<<<<<<1<1<1<<1<%<<%%%%%X.X$%%%%%%%$%%%%%$$$%%%<%%<<1<1<$$%%%%%<<1<1111%$%%111111%%%%$%<%%%%%%%%%%",
"jkkkkkjkkkkjjkjjkkjjjhhjjdhhjjjjzjjjjjjjjjjjjjkkjkjjjjjjhhhhthhhhljkjkkkklddhtthjjjkkkkkkjjkjkkkkkjhhhjkjhkjhjkghjjhhjkjhjjkkkjj",
"ttyhwqtthhghhhtwwtcr&-qqhkthjtqthhhhhhhhhjhhjhthhtttw>,$#-qtttqqw-qttuq---quthwthhkhct2222qqwhhkhjkcjw>2tkckkcktwwtwwhwtwtqqtttq",
"ttttttthhhggkhwqthjyqqqqhhttjtqwhhhhhhhjjjjhjjhyhhhtw2>,#-qqiqqqqqttq3qhq,qttttthkhjct2qq222tthkhhkhwq>2wkkjjhjtwwqwthtwwwwqqttt",
"yytyi0ttyhkkkt2hhhktqtuqhhwthtq2whhhhhjjjkjjkjjhhhhtq>1#<111qttqqqttqqttq-qttthttktjkt2qhq22qthhkkjw>222wttthhhtqqqwthwiqtttwwwt",
"tqqt0wthhhhhhqqqthkq-ttththhhtq>qwhhhhjhjkjjkkjjjhhtq2q---q-qqtwuqqq--q1q1ttththhth4hw2qtt22wwjhkjtq22wwhtwtttttwhstthtwuhjhtqqt",
"qq2q0wtthkhtw2>2whhqqwthhhkktwqq>qwhhjjjjkjjjtwthhttwwqqq-q0ttwtq-qqq-1-1thqhtttlkhhjq22shwqtqktjhwqwwhjkjjtwwtttthtttwwijjktw2q",
"q2>2qttthtttq2&2wthqq0ttjkhtwhhw2>qhjjhhhhhtwq2qttqqqq2qq-qttwwqq--qii1-tkhiiqq2khjkkkw2qtthccqqwwwthjjkckktwwthtwwtttwwthhhtw2q",
"q222qwwqtqqttwqq2wqqqhtykhwtjkjhq2>>qq>qwwttw2222qqqq22qqqtwtwthhq--qquutttqqqttkkkkMcw2whttkNh->qtjjkkkckjtw2ittwqtttwqthhtttwq",
"qq2>q>22qwwthtwwtwwqttihjtwhkkkjtw>2>>qwwwthtq2>>2qqqtqqqwwttwthjt-3qqqtttq1qutkckhjckqwtktthkt2&2tknkhkkkjwwwqthttttqwqwgghthhq",
"ut2>22>2qththtwtttwty-qhjwhnkkkcct2tttthhhhjjhw2qqwtttwwqttwttthkhqqqqq-thqqthhkkhhjckjwthkhqtw2&>qjckkkckjtwwwttttwwttkhkkhttiq",
"qqq2>2>2qqqthhttw2>qetthjthkkkkcchtkjjjjgjhjjjhw2qwhhttwwwttthhhhtqqwtq-2wqthhhkjhhjkkjtwtchwww2->qtjhknckjtwwtttwtqqttkkcchttaq",
"gqqq222qqqqqwttw&2>qtgthttjkkkkkkhtjjjjjhhhthhtwq>whhhtttthhhhhhtttttq--qqqtthhhkhhjkjhttttwwwq2>2qwhhjjkkjhthkhtythkhkhhhhhtjjh",
"hwwqqqqwwwwttttw2wwjhjhhwhhkkkckjtthnjkkhthththtwqwhjjjjhtjjjjjtkhtt-th#qhtthhhhjhjjjhttwww2wt95>22wtthjjjjjjhhtttttthkkhthhhhjj",
"hhttwwwwttttthtwqwhttkhtthjjkkckjwqhhkkhhhtqthhthwwtjjkjhjjkkkjhkkh,h3tqqqttqtqhjjjkkkjtwtwttk082>22qwytjjjjjhttttttthtwthtyhhgk",
"hjhtwq2qthtwhhhhq2wqqhhhthjjkkkjhtwhqtchtttwwttthwqwjkkhtthjjjjnkkh11-qqqqqqhqqthjkccckhtththt022>11qwhtjjjjjjtttwyyhwwwwhthhggh",
"jjhpqttttttthhqwq2qqwhjhqthjjkkhhtwtttthhhhtwwtttwqqtjkwwtthttkkjhqk-iq-qqitwhqttjkcckkktthqjhwq2213utthhjjjjjhttwtttwqwwyhhhhkk",
"knttqht0tttthhqq2qqtthhhtthhjjjjhhwtttqhhhtqwwtqthwqwthtkkjhtchjht2ttq3thqtqtqhiqkckccjktqtqhjtw2222whjhhhyjjjttwqtwwqwqwhhtthkc",
"kkhwqwttwthtwtttqwwttjhtthhthhhhhk>tttthtqtwwwtthjjw2qwhjkkjthhhhh-w-tqthhhtwttqwjjcccjhqtwqhhtq222qwhjjhykjjttttqqqwttthhhhhnkn",
"kjhwwhhttthtwthhttt0tkhhhjjhtthtwht>wttttqttwwtthjjjw>qwtjjktjkhjthq11qhhqhhqtttthkkckjhqtqqhtw22>222jjkcthhjhtwwq>wthhhhhhhjjkk",
"jjhtwthhttttthhhhttwhkhhjjkkjhhtqtt>qqwttqqq2qqqwhkkhq2qwwtthhhkcqa3-iqwwwhthtkhhhjcbckhqtqqwtw222qq2whjkhtthwwq225wthghhhghjjkk",
"jfpwttthhtqtttkhtwthhhhjkkckkjhttttw*>2qq2>>>22qqwtkjwq2222qqthhkthtutwt2tthhkwhhhjccckhtqqu0ht222wq2wjhhkwwwqwhtq2wyhgkhhhhhjkc",
"hhtwhtqthtqwwtkhtrtthhjjkkkkkjjhtttt2****>22qqqwhjhjkjtq&&->2qwtttjttqtktththkkjchjnkkjhttwthttw2>qqqwwhhhtwwwhyhwwtthhghhhyhjkc",
"2>>>2>>-*-->>>:2>--*->222qq9q12---+#>-2222222q2>25->>qqq922>22>>222222222>>>>2>>2>>>-&>>>222qqq22qqq22qqq222qq>>&>2222>>>222>222",
"***>*******>*******>*******>*******>*******>*******>*******>*******>*******>*******>*******>*******>*******>*******>*******>****",
">qthtq>O>qthtq>O>qthtq>O>qthtq>O>qthtq>O>qthtq>O>qthtq>O>qthtq>O>qthtq>O>qthtq>O>qthtq>O>qthtq>O>qthtq>O>qthtq>O>qthtq>O>qthtw2O",
"qtthttq>qtthttq>qtthttq>qtthttq>qtthttq>qtthttq>qtthttq>qtthttq>qtthttq>qtthttq>qtthttq>qtthttq>qtthttq>qtthttq>qtthttq>qtthttw>",
"whwwwhwqwhwwwhwqwhwwwhwqwhwwwhwqwhwwwhwqwhwwwhwqwhwwwhwqwhwwwhwqwhwwwhwqwhwwwhwqwhwwwhwqwhwwwhwqwhwwwhwqwhwwwhwqwhwwwhwqwhwwwhwq",
"qhtqthq>qhtqthq>qhtqthq>qhtqthq>qhtqthq>qhtqthq>qhtqthq>qhtqthq>qhtqthq>qhtqthq>qhtqthq>qhtqthq>qhtqthq>qhtqthq>qhtqthq>qhtqthq>",
"w*>h>*t>w*>h>*t>w*>h>*t>w*>h>*t>w*>h>*t>w*>h>*t>w*>h>*t>w*>h>*t>w*>h>*t>w*>h>*t>w*>h>*t>w*>h>*t>w*>h>*t>w*>h>*t>w*>h>*t>w*>h>*t>",
"hth>hthqhth>hthqhth>hthqhth>hthqhth>hthqhth>hthqhth>hthqhth>hthqhth>hthqhth>hthqhth>hthqhth>hthqhth>hthqhth>hthqhth>hthqhth>hthq",
">*wtw*>*>*wtw*>*>*wtw*>*>*wtw*>*>*wtw*>*>*wtw*>*>*wtw*>*>*wtw*>*>*wtw*>*>*wtw*>*>*wtw*>*>*wtw*>*>*wtw*>*>*wtw*>*>*wtw*>*>*wtw*>*",
"@*222*OO@*222*OO@*222*OO@*222*OO@*222*OO@*222*OO@*222*OO@*222*OO@*222*OO@*222*OO@*222*OO@*222*OO@*222*OO@*222*OO@*222*OO@*222*O#"
};
